<svg id="Layer_1" data-name="Layer 1" xmlns="http://www.w3.org/2000/svg" viewBox="0 0 324.29 58.98"><defs><style>.cls-1{isolation:isolate;}.cls-2{fill:#fff;}.cls-3{fill:#5e35b1;}.cls-4{fill:#d4e157;}.cls-5{fill:#29b6f6;}.cls-6{fill:#26a69a;}</style></defs><title>bl_logo_footer</title><g id="Layer_1-2" data-name="Layer 1-2"><g class="cls-1"><g class="cls-1"><path class="cls-2" d="M88,5.4h14.25a6.77,6.77,0,0,1,7.16,6.84,5.91,5.91,0,0,1-3.09,5.37,6.14,6.14,0,0,1,4.53,6.19c0,4.14-3.2,6.8-7.16,6.8H88Zm12.67,10.26c1.87,0,3-1,3-2.73s-1.12-2.74-3-2.74H93.78v5.47Zm1.37,10.15c1.9,0,3.06-1.08,3.06-2.77s-1.16-2.81-3.06-2.81H93.78v5.58Z" transform="translate(0 -4.94)"/><path class="cls-2" d="M137.69,25.27V30.6H117.18V5.4h20.15v5.33H122.94V15.3h9.18v5.33h-9.18v4.64Z" transform="translate(0 -4.94)"/><path class="cls-2" d="M167.86,30.31v.29h-6.08l-5.72-8.53h-6.2V30.6h-5.75V5.4H157.6c5,0,8.82,3.39,8.82,8.35a8,8,0,0,1-4.75,7.49Zm-18-13.17h7.06c2.16,0,3.74-1.26,3.74-3.31s-1.58-3.28-3.74-3.28h-7.06Z" transform="translate(0 -4.94)"/><path class="cls-2" d="M196.84,5.4V30.6h-5L179.21,14.94V30.6h-5.76V5.4h5l12.6,15.66V5.4Z" transform="translate(0 -4.94)"/></g><g class="cls-1"><path class="cls-2" d="M203,27.58l2.59-4.79C208,25,211.1,25.92,215,25.92c3.42,0,5.48-1,5.48-2.91,0-1.37-1.12-1.7-6.52-2.45S203.44,19,203.44,13.32c0-5.18,4.42-8.38,10.83-8.38,5.8,0,9.43,2.51,10.94,5.75l-4.68,2.45c-.79-2-3-3.13-6.37-3.13-3.63,0-5,1.22-5,2.84,0,1.44,1.18,1.91,6,2.56,5.51.76,10.91,1.55,10.91,7.34,0,5.51-4.9,8.32-11.56,8.32A19,19,0,0,1,203,27.58Z" transform="translate(0 -4.94)"/></g><g class="cls-1"><path class="cls-2" d="M252.29,10.73h-8.64V30.6h-5.76V10.73h-8.64V5.4h23Z" transform="translate(0 -4.94)"/><path class="cls-2" d="M278.46,25.27V30.6H257.94V5.4H278.1v5.33H263.7V15.3h9.18v5.33H263.7v4.64Z" transform="translate(0 -4.94)"/><path class="cls-2" d="M290.63,5.4V30.6h-5.76V5.4Z" transform="translate(0 -4.94)"/><path class="cls-2" d="M321.76,5.4V30.6h-5L304.13,14.94V30.6h-5.76V5.4h5L316,21.06V5.4Z" transform="translate(0 -4.94)"/></g><g class="cls-1"><path class="cls-2" d="M105.22,61.14V63.6H88.42V41.2H91V61.14Z" transform="translate(0 -4.94)"/><path class="cls-2" d="M130.6,63.38v.22h-2.66l-2.43-5.25h-13l-2.43,5.25H107.4v-.22L117.83,41.2h2.3Zm-6.24-7.49L119,44.3,113.6,55.89Z" transform="translate(0 -4.94)"/><path class="cls-2" d="M134.76,41.2H146.4a6,6,0,0,1,6.37,6.08,5.13,5.13,0,0,1-2.85,4.8,5.49,5.49,0,0,1,4.45,5.54c0,3.64-2.85,6-6.37,6H134.76Zm11.61,10a3.54,3.54,0,0,0,3.84-3.71,3.66,3.66,0,0,0-3.9-3.84h-9v7.55Zm1.54,10a3.81,3.81,0,1,0,0-7.62H137.32v7.62Z" transform="translate(0 -4.94)"/><path class="cls-2" d="M158.15,52.4A11.79,11.79,0,1,1,170,63.92,11.4,11.4,0,0,1,158.15,52.4Zm21,0A9.23,9.23,0,1,0,170,61.46,8.84,8.84,0,0,0,179.17,52.4Z" transform="translate(0 -4.94)"/><path class="cls-2" d="M207.43,63.41v.19h-2.75l-6.12-9h-8.83v9h-2.56V41.2h11.68c4.13,0,7.3,2.72,7.3,6.72a6.47,6.47,0,0,1-4.93,6.34Zm-17.7-11.23h9c2.75,0,4.83-1.64,4.83-4.26s-2.08-4.29-4.83-4.29h-9Z" transform="translate(0 -4.94)"/></g><g class="cls-1"><path class="cls-2" d="M232.55,63.38v.22h-2.66l-2.43-5.25h-13L212,63.6h-2.65v-.22L219.78,41.2h2.3Zm-6.24-7.49L220.93,44.3l-5.37,11.59Z" transform="translate(0 -4.94)"/></g><g class="cls-1"><path class="cls-2" d="M251.53,43.63h-8.9v20h-2.56v-20h-8.86V41.2h20.32Z" transform="translate(0 -4.94)"/></g><g class="cls-1"><path class="cls-2" d="M253,52.4a11.79,11.79,0,1,1,11.81,11.52A11.4,11.4,0,0,1,253,52.4Zm21,0a9.23,9.23,0,1,0-9.21,9.06A8.84,8.84,0,0,0,274,52.4Z" transform="translate(0 -4.94)"/></g><g class="cls-1"><path class="cls-2" d="M302.25,63.41v.19h-2.76l-6.11-9h-8.83v9H282V41.2h11.68c4.13,0,7.3,2.72,7.3,6.72A6.47,6.47,0,0,1,296,54.26Zm-17.7-11.23h9c2.75,0,4.83-1.64,4.83-4.26s-2.08-4.29-4.83-4.29h-9Z" transform="translate(0 -4.94)"/></g><g class="cls-1"><path class="cls-2" d="M324.29,41.43,315.17,54.1v9.5h-2.56V54.1l-9.12-12.67V41.2h2.78l7.62,10.69L321.5,41.2h2.79Z" transform="translate(0 -4.94)"/></g></g><rect class="cls-3" y="0.5" width="67.42" height="8.73"/><rect class="cls-4" y="9.23" width="67.42" height="4.19"/><rect class="cls-5" y="12.73" width="67.42" height="9.08"/><rect class="cls-6" y="21.81" width="67.42" height="6.29"/><rect class="cls-4" y="28.1" width="67.42" height="8.39"/><rect class="cls-5" y="36.49" width="67.42" height="3.49"/><rect class="cls-3" y="39.98" width="67.42" height="13.63"/><rect class="cls-6" y="53.61" width="67.42" height="4.89"/></g></svg>