<svg xmlns="http://www.w3.org/2000/svg" viewBox="0 0 447.03 60.17"><defs><style>.cls-1{fill:#5e35b1;}.cls-2{fill:#d4e157;}.cls-3{fill:#29b6f6;}.cls-4{fill:#26a69a;}</style></defs><title>bl_logo</title><g id="Layer_2" data-name="Layer 2"><g id="Layer_1-2" data-name="Layer 1"><path d="M88,5.4h14.25c4.32,0,7.16,3,7.16,6.84a5.91,5.91,0,0,1-3.1,5.36,6.15,6.15,0,0,1,4.54,6.19c0,4.14-3.2,6.8-7.16,6.8H88Zm12.67,10.26c1.87,0,3-1,3-2.74s-1.12-2.74-3-2.74H93.78v5.47Zm1.37,10.15c1.91,0,3.06-1.08,3.06-2.77s-1.15-2.81-3.06-2.81H93.78v5.58Z" transform="translate(0 -4.94)"/><path d="M137.7,25.27V30.6H117.18V5.4h20.16v5.33h-14.4V15.3h9.18v5.33h-9.18v4.64Z" transform="translate(0 -4.94)"/><path d="M167.83,30.31v.29h-6.08L156,22.07h-6.19V30.6h-5.76V5.4h13.5c5,0,8.82,3.38,8.82,8.35a8,8,0,0,1-4.75,7.49Zm-18-13.17h7.06c2.16,0,3.74-1.26,3.74-3.31s-1.58-3.28-3.74-3.28h-7.06Z" transform="translate(0 -4.94)"/><path d="M196.81,5.4V30.6h-5l-12.6-15.66V30.6h-5.76V5.4h5l12.6,15.66V5.4Z" transform="translate(0 -4.94)"/><path d="M202.93,27.58l2.59-4.79c2.48,2.2,5.54,3.13,9.4,3.13,3.42,0,5.47-1,5.47-2.92,0-1.37-1.12-1.69-6.52-2.45S203.4,19,203.4,13.32c0-5.18,4.43-8.39,10.83-8.39,5.8,0,9.43,2.52,10.94,5.76l-4.68,2.45c-.79-2-3-3.13-6.37-3.13-3.64,0-5,1.22-5,2.84,0,1.44,1.19,1.91,6,2.56,5.51.76,10.91,1.55,10.91,7.34,0,5.51-4.9,8.31-11.55,8.31A19,19,0,0,1,202.93,27.58Z" transform="translate(0 -4.94)"/><path d="M252.21,10.73h-8.64V30.6h-5.76V10.73h-8.64V5.4h23Z" transform="translate(0 -4.94)"/><path d="M278.35,25.27V30.6H257.83V5.4H278v5.33h-14.4V15.3h9.18v5.33h-9.18v4.64Z" transform="translate(0 -4.94)"/><path d="M290.48,5.4V30.6h-5.76V5.4Z" transform="translate(0 -4.94)"/><path d="M321.62,5.4V30.6h-5L304,14.94V30.6h-5.76V5.4h5l12.6,15.66V5.4Z" transform="translate(0 -4.94)"/><path d="M105.22,61.14V63.6H88.43V41.2H91V61.14Z" transform="translate(0 -4.94)"/><path d="M130.6,63.38v.22h-2.66l-2.43-5.25h-13l-2.43,5.25H107.4v-.22L117.83,41.2h2.3Zm-6.24-7.49L119,44.31l-5.38,11.58Z" transform="translate(0 -4.94)"/><path d="M134.76,41.2h11.65a6,6,0,0,1,6.37,6.08,5.14,5.14,0,0,1-2.85,4.8,5.49,5.49,0,0,1,4.45,5.54c0,3.65-2.85,6-6.37,6H134.76Zm11.62,10a3.55,3.55,0,0,0,3.84-3.71,3.66,3.66,0,0,0-3.9-3.84h-9v7.55Zm1.54,10a3.81,3.81,0,1,0,0-7.62H137.32v7.62Z" transform="translate(0 -4.94)"/><path d="M158.15,52.4A11.79,11.79,0,1,1,170,63.92,11.4,11.4,0,0,1,158.15,52.4Zm21,0A9.23,9.23,0,1,0,170,61.46,8.84,8.84,0,0,0,179.18,52.4Z" transform="translate(0 -4.94)"/><path d="M207.43,63.41v.19h-2.75l-6.11-9h-8.83v9h-2.56V41.2h11.68c4.13,0,7.3,2.72,7.3,6.72a6.45,6.45,0,0,1-4.93,6.34ZM189.74,52.18h9c2.75,0,4.83-1.63,4.83-4.26s-2.08-4.29-4.83-4.29h-9Z" transform="translate(0 -4.94)"/><path d="M232.55,63.38v.22H229.9l-2.43-5.25h-13L212,63.6h-2.66v-.22L219.78,41.2h2.3Zm-6.24-7.49-5.38-11.58-5.38,11.58Z" transform="translate(0 -4.94)"/><path d="M251.56,43.63h-8.9v20H240.1v-20h-8.86V41.2h20.32Z" transform="translate(0 -4.94)"/><path d="M253,52.4a11.79,11.79,0,1,1,11.81,11.52A11.4,11.4,0,0,1,253,52.4Zm21,0a9.23,9.23,0,1,0-9.22,9.06A8.84,8.84,0,0,0,274.05,52.4Z" transform="translate(0 -4.94)"/><path d="M302.31,63.41v.19h-2.75l-6.11-9h-8.83v9h-2.56V41.2h11.68c4.13,0,7.3,2.72,7.3,6.72a6.45,6.45,0,0,1-4.93,6.34ZM284.62,52.18h9c2.75,0,4.83-1.63,4.83-4.26s-2.08-4.29-4.83-4.29h-9Z" transform="translate(0 -4.94)"/><path d="M324.36,41.43,315.24,54.1v9.5h-2.56V54.1l-9.12-12.67V41.2h2.78L314,51.89l7.62-10.69h2.78Z" transform="translate(0 -4.94)"/><rect class="cls-1" y="0.5" width="67.42" height="8.74"/><rect class="cls-2" y="9.24" width="67.42" height="4.19"/><rect class="cls-3" y="12.73" width="67.42" height="9.08"/><rect class="cls-4" y="21.82" width="67.42" height="6.29"/><rect class="cls-2" y="28.11" width="67.42" height="8.39"/><rect class="cls-3" y="36.49" width="67.42" height="3.49"/><rect class="cls-1" y="39.99" width="67.42" height="13.63"/><rect class="cls-4" y="53.61" width="67.42" height="4.89"/><path d="M346.48,13V14H340V5.58h6.45v.91h-5.49V9.31h3.54v.91h-3.54V13Z" transform="translate(0 -4.94)"/><path d="M356.23,8.21a2.64,2.64,0,0,1-2.76,2.63H350V14h-1V5.58h4.47A2.65,2.65,0,0,1,356.23,8.21Zm-1,0a1.73,1.73,0,0,0-1.83-1.73H350V9.93h3.48A1.72,1.72,0,0,0,355.27,8.21Z" transform="translate(0 -4.94)"/><path d="M359.71,5.58V14h-1V5.58Z" transform="translate(0 -4.94)"/><path d="M370.64,9.56v3a4.92,4.92,0,0,1-3.72,1.56,4.23,4.23,0,0,1-4.57-4.28,4.23,4.23,0,0,1,4.41-4.35,4,4,0,0,1,3.75,2.12l-.82.47a3,3,0,0,0-2.9-1.68,3.31,3.31,0,0,0-3.49,3.42,3.31,3.31,0,0,0,3.6,3.38,3.78,3.78,0,0,0,2.84-1.12V10.43H367V9.56Z" transform="translate(0 -4.94)"/><path d="M379.92,13V14h-6.51V5.58h6.45v.91h-5.49V9.31h3.54v.91h-3.54V13Z" transform="translate(0 -4.94)"/><path d="M389.88,5.58V14H389L383.4,7.13V14h-1V5.58h.86l5.61,6.85V5.58Z" transform="translate(0 -4.94)"/><path d="M392.52,9.77a4.42,4.42,0,1,1,4.43,4.32A4.27,4.27,0,0,1,392.52,9.77Zm7.88,0a3.46,3.46,0,0,0-6.92,0,3.46,3.46,0,0,0,6.92,0Z" transform="translate(0 -4.94)"/><path d="M412.52,5.58V14h-1V7.22l-3.24,4.33h-.12L405,7.22V14h-1V5.58h.86l3.39,4.56,3.41-4.56Z" transform="translate(0 -4.94)"/><path d="M416.64,5.58V14h-1V5.58Z" transform="translate(0 -4.94)"/><path d="M419.29,9.77a4.16,4.16,0,0,1,4.32-4.32,4,4,0,0,1,3.71,2.12L426.5,8a3,3,0,0,0-2.87-1.68,3.26,3.26,0,0,0-3.38,3.41,3.28,3.28,0,0,0,3.42,3.39,3,3,0,0,0,2.89-1.67l.82.47a4,4,0,0,1-3.73,2.12A4.19,4.19,0,0,1,419.29,9.77Z" transform="translate(0 -4.94)"/><path d="M347.55,30.9V31h-1l-2.29-3.38h-3.31V31h-1v-8.4h4.38a2.54,2.54,0,0,1,2.73,2.52,2.42,2.42,0,0,1-1.85,2.38Zm-6.63-4.21h3.38a1.61,1.61,0,1,0,0-3.2h-3.38Z" transform="translate(0 -4.94)"/><path d="M356.37,30.05V31h-6.51v-8.4h6.45v.91h-5.49v2.82h3.54v.91h-3.54v2.83Z" transform="translate(0 -4.94)"/><path d="M366.31,26.56v3a4.92,4.92,0,0,1-3.72,1.56,4.32,4.32,0,1,1-.16-8.64,4,4,0,0,1,3.75,2.12l-.82.47a3,3,0,0,0-2.9-1.68,3.4,3.4,0,1,0,.11,6.8,3.78,3.78,0,0,0,2.84-1.12V27.44h-2.71v-.88Z" transform="translate(0 -4.94)"/><path d="M368.86,27.58v-5h1v5a2.71,2.71,0,0,0,5.42,0v-5h1v5c0,2.52-1.73,3.51-3.67,3.51S368.86,30.1,368.86,27.58Z" transform="translate(0 -4.94)"/><path d="M385.44,30.05V31h-6.3v-8.4h1v7.47Z" transform="translate(0 -4.94)"/><path d="M395.55,30.89V31h-1l-.91-2h-4.88l-.91,2h-1v-.08l3.91-8.31h.86Zm-2.34-2.81-2-4.34-2,4.34Z" transform="translate(0 -4.94)"/><path d="M403.28,23.49h-3.33V31h-1V23.49h-3.32v-.91h7.62Z" transform="translate(0 -4.94)"/><path d="M406.53,22.58V31h-1v-8.4Z" transform="translate(0 -4.94)"/><path d="M409.17,26.78a4.42,4.42,0,1,1,4.43,4.32A4.27,4.27,0,0,1,409.17,26.78Zm7.88,0a3.46,3.46,0,1,0-3.45,3.39A3.31,3.31,0,0,0,417,26.78Z" transform="translate(0 -4.94)"/><path d="M428.09,22.58V31h-.85l-5.62-6.84V31h-1v-8.4h.86l5.61,6.85V22.58Z" transform="translate(0 -4.94)"/><path d="M436.44,22.58V31h-1v-8.4Z" transform="translate(0 -4.94)"/><path d="M447,22.58V31h-.85l-5.62-6.84V31h-1v-8.4h.86l5.61,6.85V22.58Z" transform="translate(0 -4.94)"/><path d="M347.58,43.78A4.2,4.2,0,0,1,343.2,48H340v-8.4h3.24A4.2,4.2,0,0,1,347.58,43.78Zm-1,0a3.24,3.24,0,0,0-3.42-3.29h-2.28v6.56h2.28A3.23,3.23,0,0,0,346.62,43.78Z" transform="translate(0 -4.94)"/><path d="M356.73,47.06V48h-6.51v-8.4h6.45v.91h-5.49v2.82h3.54v.91h-3.54v2.83Z" transform="translate(0 -4.94)"/><path d="M358.28,39.67v-.08h1l3.25,7.22,3.25-7.22h1v.08L363,48h-.9Z" transform="translate(0 -4.94)"/><path d="M375.43,47.06V48h-6.51v-8.4h6.45v.91h-5.49v2.82h3.54v.91h-3.54v2.83Z" transform="translate(0 -4.94)"/><path d="M384.25,47.06V48H378v-8.4h1v7.47Z" transform="translate(0 -4.94)"/><path d="M385.55,43.78A4.42,4.42,0,1,1,390,48.1,4.27,4.27,0,0,1,385.55,43.78Zm7.88,0A3.46,3.46,0,1,0,390,47.17,3.31,3.31,0,0,0,393.43,43.78Z" transform="translate(0 -4.94)"/><path d="M404.27,42.22a2.64,2.64,0,0,1-2.76,2.63H398V48h-1v-8.4h4.47A2.65,2.65,0,0,1,404.27,42.22Zm-1,0a1.73,1.73,0,0,0-1.83-1.73H398v3.44h3.48A1.72,1.72,0,0,0,403.31,42.22Z" transform="translate(0 -4.94)"/><path d="M415.31,39.58V48h-1V41.23l-3.24,4.33H411l-3.24-4.33V48h-1v-8.4h.86L411,44.14l3.41-4.56Z" transform="translate(0 -4.94)"/><path d="M425,47.06V48h-6.51v-8.4h6.45v.91h-5.49v2.82H423v.91h-3.54v2.83Z" transform="translate(0 -4.94)"/><path d="M434.94,39.58V48h-.85l-5.62-6.84V48h-1v-8.4h.86L434,46.43V39.58Z" transform="translate(0 -4.94)"/><path d="M444.84,40.49H441.5V48h-1V40.49h-3.32v-.91h7.62Z" transform="translate(0 -4.94)"/><path d="M347.67,64.9V65h-1l-.91-2h-4.88L340,65h-1V64.9l3.91-8.31h.86Zm-2.34-2.81-2-4.34-2,4.34Z" transform="translate(0 -4.94)"/><path d="M357.27,56.59V65h-.85l-5.62-6.84V65h-1v-8.4h.86l5.61,6.85V56.59Z" transform="translate(0 -4.94)"/><path d="M368.05,60.78a4.2,4.2,0,0,1-4.38,4.2h-3.24v-8.4h3.24A4.2,4.2,0,0,1,368.05,60.78Zm-1,0a3.24,3.24,0,0,0-3.42-3.29h-2.28v6.56h2.28A3.23,3.23,0,0,0,367.09,60.78Z" transform="translate(0 -4.94)"/><path d="M374.44,60.78a4.16,4.16,0,0,1,4.32-4.32,4,4,0,0,1,3.71,2.12l-.82.47a3,3,0,0,0-2.87-1.68,3.4,3.4,0,0,0,0,6.8,3,3,0,0,0,2.89-1.67l.82.47a4,4,0,0,1-3.73,2.12A4.19,4.19,0,0,1,374.44,60.78Z" transform="translate(0 -4.94)"/><path d="M392.52,64.9V65h-1l-.91-2h-4.88l-.91,2h-1V64.9l3.91-8.31h.86Zm-2.34-2.81-2-4.34-2,4.34Z" transform="translate(0 -4.94)"/><path d="M402.11,56.59V65h-.85l-5.62-6.84V65h-1v-8.4h.86l5.61,6.85V56.59Z" transform="translate(0 -4.94)"/><path d="M404.76,60.78a4.16,4.16,0,0,1,4.32-4.32,4,4,0,0,1,3.71,2.12l-.82.47a3,3,0,0,0-2.87-1.68,3.4,3.4,0,0,0,0,6.8A3,3,0,0,0,412,62.51l.82.47a4,4,0,0,1-3.73,2.12A4.19,4.19,0,0,1,404.76,60.78Z" transform="translate(0 -4.94)"/><path d="M421.88,64.06V65h-6.51v-8.4h6.45v.91h-5.49v2.82h3.54v.91h-3.54v2.83Z" transform="translate(0 -4.94)"/><path d="M432,64.91V65h-1l-2.29-3.38h-3.31V65h-1v-8.4h4.38a2.54,2.54,0,0,1,2.73,2.52,2.42,2.42,0,0,1-1.85,2.38Zm-6.63-4.21h3.38a1.61,1.61,0,1,0,0-3.2h-3.38Z" transform="translate(0 -4.94)"/></g></g></svg>