<svg xmlns="http://www.w3.org/2000/svg" viewBox="0 0 447.03 60.17"><defs><style>.cls-1{fill:#5e35b1}.cls-2{fill:#d4e157}.cls-3{fill:#29b6f6}.cls-4{fill:#26a69a}</style></defs><g id="Layer_2" data-name="Layer 2"><g id="Layer_1-2" data-name="Layer 1"><path d="M88 5.4h14.25c4.32 0 7.16 3 7.16 6.84a5.91 5.91 0 0 1-3.1 5.36 6.15 6.15 0 0 1 4.54 6.19c0 4.14-3.2 6.8-7.16 6.8H88zm12.67 10.26c1.87 0 3-1 3-2.74s-1.12-2.74-3-2.74h-6.89v5.47zm1.37 10.15c1.91 0 3.06-1.08 3.06-2.77s-1.15-2.81-3.06-2.81h-8.26v5.58zm35.66-.54v5.33h-20.52V5.4h20.16v5.33h-14.4v4.57h9.18v5.33h-9.18v4.64zm30.13 5.04v.29h-6.08L156 22.07h-6.19v8.53h-5.76V5.4h13.5c5 0 8.82 3.38 8.82 8.35a8 8 0 0 1-4.75 7.49zm-18-13.17h7.06c2.16 0 3.74-1.26 3.74-3.31s-1.58-3.28-3.74-3.28h-7.06zM196.81 5.4v25.2h-5l-12.6-15.66V30.6h-5.76V5.4h5l12.6 15.66V5.4zm6.12 22.18l2.59-4.79c2.48 2.2 5.54 3.13 9.4 3.13 3.42 0 5.47-1 5.47-2.92 0-1.37-1.12-1.69-6.52-2.45S203.4 19 203.4 13.32c0-5.18 4.43-8.39 10.83-8.39 5.8 0 9.43 2.52 10.94 5.76l-4.68 2.45c-.79-2-3-3.13-6.37-3.13-3.64 0-5 1.22-5 2.84 0 1.44 1.19 1.91 6 2.56 5.51.76 10.91 1.55 10.91 7.34 0 5.51-4.9 8.31-11.55 8.31a19 19 0 0 1-11.55-3.48zm49.28-16.85h-8.64V30.6h-5.76V10.73h-8.64V5.4h23zm26.14 14.54v5.33h-20.52V5.4H278v5.33h-14.4v4.57h9.18v5.33h-9.18v4.64zM290.48 5.4v25.2h-5.76V5.4zm31.14 0v25.2h-5L304 14.94V30.6h-5.76V5.4h5l12.6 15.66V5.4zm-216.4 55.74v2.46H88.43V41.2H91v19.94zm25.38 2.24v.22h-2.66l-2.43-5.25h-13l-2.43 5.25h-2.68v-.22l10.43-22.18h2.3zm-6.24-7.49L119 44.31l-5.38 11.58zm10.4-14.69h11.65a6 6 0 0 1 6.37 6.08 5.14 5.14 0 0 1-2.85 4.8 5.49 5.49 0 0 1 4.45 5.54c0 3.65-2.85 6-6.37 6h-13.25zm11.62 10a3.55 3.55 0 0 0 3.84-3.71 3.66 3.66 0 0 0-3.9-3.84h-9v7.55zm1.54 10a3.81 3.81 0 1 0 0-7.62h-10.6v7.62zm10.23-8.8A11.79 11.79 0 1 1 170 63.92a11.4 11.4 0 0 1-11.85-11.52zm21 0a9.23 9.23 0 1 0-9.15 9.06 8.84 8.84 0 0 0 9.18-9.06zm28.28 11.01v.19h-2.75l-6.11-9h-8.83v9h-2.56V41.2h11.68c4.13 0 7.3 2.72 7.3 6.72a6.45 6.45 0 0 1-4.93 6.34zm-17.69-11.23h9c2.75 0 4.83-1.63 4.83-4.26s-2.08-4.29-4.83-4.29h-9zm42.81 11.2v.22h-2.65l-2.43-5.25h-13L212 63.6h-2.66v-.22l10.44-22.18h2.3zm-6.24-7.49l-5.38-11.58-5.38 11.58zm25.25-12.26h-8.9v20h-2.56v-20h-8.86V41.2h20.32zM253 52.4a11.79 11.79 0 1 1 11.81 11.52A11.4 11.4 0 0 1 253 52.4zm21 0a9.23 9.23 0 1 0-9.22 9.06 8.84 8.84 0 0 0 9.27-9.06zm28.31 11.01v.19h-2.75l-6.11-9h-8.83v9h-2.56V41.2h11.68c4.13 0 7.3 2.72 7.3 6.72a6.45 6.45 0 0 1-4.93 6.34zm-17.69-11.23h9c2.75 0 4.83-1.63 4.83-4.26s-2.08-4.29-4.83-4.29h-9zm39.74-10.75l-9.12 12.67v9.5h-2.56v-9.5l-9.12-12.67v-.23h2.78L314 51.89l7.62-10.69h2.78z" transform="translate(0 -4.94)"/><path class="cls-1" d="M0 .5h67.42v8.74H0z"/><path class="cls-2" d="M0 9.24h67.42v4.19H0z"/><path class="cls-3" d="M0 12.73h67.42v9.08H0z"/><path class="cls-4" d="M0 21.82h67.42v6.29H0z"/><path class="cls-2" d="M0 28.11h67.42v8.39H0z"/><path class="cls-3" d="M0 36.49h67.42v3.49H0z"/><path class="cls-1" d="M0 39.99h67.42v13.63H0z"/><path class="cls-4" d="M0 53.61h67.42v4.89H0z"/><path d="M346.48 13v1H340V5.58h6.45v.91h-5.49v2.82h3.54v.91h-3.54V13zm9.75-4.79a2.64 2.64 0 0 1-2.76 2.63H350V14h-1V5.58h4.47a2.65 2.65 0 0 1 2.76 2.63zm-1 0a1.73 1.73 0 0 0-1.83-1.73H350v3.45h3.48a1.72 1.72 0 0 0 1.79-1.72zm4.48-2.63V14h-1V5.58zm10.93 3.98v3a4.92 4.92 0 0 1-3.72 1.56 4.23 4.23 0 0 1-4.57-4.28 4.23 4.23 0 0 1 4.41-4.35 4 4 0 0 1 3.75 2.12l-.82.47a3 3 0 0 0-2.9-1.68 3.31 3.31 0 0 0-3.49 3.42 3.31 3.31 0 0 0 3.6 3.38 3.78 3.78 0 0 0 2.84-1.12v-1.65H367v-.87zm9.28 3.44v1h-6.51V5.58h6.45v.91h-5.49v2.82h3.54v.91h-3.54V13zm9.96-7.42V14H389l-5.6-6.87V14h-1V5.58h.86l5.61 6.85V5.58zm2.64 4.19a4.42 4.42 0 1 1 4.43 4.32 4.27 4.27 0 0 1-4.43-4.32zm7.88 0a3.46 3.46 0 0 0-6.92 0 3.46 3.46 0 0 0 6.92 0zm12.12-4.19V14h-1V7.22l-3.24 4.33h-.12L405 7.22V14h-1V5.58h.86l3.39 4.56 3.41-4.56zm4.12 0V14h-1V5.58zm2.65 4.19a4.16 4.16 0 0 1 4.32-4.32 4 4 0 0 1 3.71 2.12l-.82.43a3 3 0 0 0-2.87-1.68 3.26 3.26 0 0 0-3.38 3.41 3.28 3.28 0 0 0 3.42 3.39 3 3 0 0 0 2.89-1.67l.82.47a4 4 0 0 1-3.73 2.12 4.19 4.19 0 0 1-4.36-4.27zM347.55 30.9v.1h-1l-2.29-3.38h-3.31V31h-1v-8.4h4.38a2.54 2.54 0 0 1 2.73 2.52 2.42 2.42 0 0 1-1.85 2.38zm-6.63-4.21h3.38a1.61 1.61 0 1 0 0-3.2h-3.38zm15.45 3.36V31h-6.51v-8.4h6.45v.91h-5.49v2.82h3.54v.91h-3.54v2.83zm9.94-3.49v3a4.92 4.92 0 0 1-3.72 1.56 4.32 4.32 0 1 1-.16-8.64 4 4 0 0 1 3.75 2.12l-.82.47a3 3 0 0 0-2.9-1.68 3.4 3.4 0 1 0 .11 6.8 3.78 3.78 0 0 0 2.84-1.12v-1.63h-2.71v-.88zm2.55 1.02v-5h1v5a2.71 2.71 0 0 0 5.42 0v-5h1v5c0 2.52-1.73 3.51-3.67 3.51s-3.75-.99-3.75-3.51zm16.58 2.47V31h-6.3v-8.4h1v7.47zm10.11.84V31h-1l-.91-2h-4.88l-.91 2h-1v-.08l3.91-8.31h.86zm-2.34-2.81l-2-4.34-2 4.34zm10.07-4.59h-3.33V31h-1v-7.51h-3.32v-.91h7.62zm3.25-.91V31h-1v-8.4zm2.64 4.2a4.42 4.42 0 1 1 4.43 4.32 4.27 4.27 0 0 1-4.43-4.32zm7.88 0a3.46 3.46 0 1 0-3.45 3.39 3.31 3.31 0 0 0 3.4-3.39zm11.04-4.2V31h-.85l-5.62-6.84V31h-1v-8.4h.86l5.61 6.85v-6.87zm8.35 0V31h-1v-8.4zm10.56 0V31h-.85l-5.62-6.84V31h-1v-8.4h.86l5.61 6.85v-6.87zm-99.42 21.2A4.2 4.2 0 0 1 343.2 48H340v-8.4h3.24a4.2 4.2 0 0 1 4.34 4.18zm-1 0a3.24 3.24 0 0 0-3.42-3.29h-2.28v6.56h2.28a3.23 3.23 0 0 0 3.46-3.27zm10.15 3.28V48h-6.51v-8.4h6.45v.91h-5.49v2.82h3.54v.91h-3.54v2.83zm1.55-7.39v-.08h1l3.25 7.22 3.25-7.22h1v.08L363 48h-.9zm17.15 7.39V48h-6.51v-8.4h6.45v.91h-5.49v2.82h3.54v.91h-3.54v2.83zm8.82 0V48H378v-8.4h1v7.47zm1.3-3.28A4.42 4.42 0 1 1 390 48.1a4.27 4.27 0 0 1-4.45-4.32zm7.88 0a3.46 3.46 0 1 0-3.43 3.39 3.31 3.31 0 0 0 3.43-3.39zm10.84-1.56a2.64 2.64 0 0 1-2.76 2.63H398V48h-1v-8.4h4.47a2.65 2.65 0 0 1 2.8 2.62zm-1 0a1.73 1.73 0 0 0-1.83-1.73H398v3.44h3.48a1.72 1.72 0 0 0 1.83-1.71zm12.04-2.64V48h-1v-6.77l-3.24 4.33H411l-3.24-4.33V48h-1v-8.4h.86l3.38 4.54 3.41-4.56zm9.69 7.48V48h-6.51v-8.4h6.45v.91h-5.49v2.82H423v.91h-3.54v2.83zm9.94-7.48V48h-.85l-5.62-6.84V48h-1v-8.4h.86l5.67 6.83v-6.85zm9.9.91h-3.34V48h-1v-7.51h-3.32v-.91h7.62zM347.67 64.9v.1h-1l-.91-2h-4.88l-.88 2h-1v-.1l3.91-8.31h.86zm-2.34-2.81l-2-4.34-2 4.34zm11.94-5.5V65h-.85l-5.62-6.84V65h-1v-8.4h.86l5.61 6.85v-6.86zm10.78 4.19a4.2 4.2 0 0 1-4.38 4.2h-3.24v-8.4h3.24a4.2 4.2 0 0 1 4.38 4.2zm-1 0a3.24 3.24 0 0 0-3.42-3.29h-2.28v6.56h2.28a3.23 3.23 0 0 0 3.46-3.27zm7.39 0a4.16 4.16 0 0 1 4.32-4.32 4 4 0 0 1 3.71 2.12l-.82.47a3 3 0 0 0-2.87-1.68 3.4 3.4 0 0 0 0 6.8 3 3 0 0 0 2.89-1.67l.82.47a4 4 0 0 1-3.73 2.12 4.19 4.19 0 0 1-4.32-4.31zm18.08 4.12v.1h-1l-.91-2h-4.88l-.91 2h-1v-.1l3.91-8.31h.86zm-2.34-2.81l-2-4.34-2 4.34zm11.93-5.5V65h-.85l-5.62-6.84V65h-1v-8.4h.86l5.61 6.85v-6.86zm2.65 4.19a4.16 4.16 0 0 1 4.32-4.32 4 4 0 0 1 3.71 2.12l-.82.47a3 3 0 0 0-2.87-1.68 3.4 3.4 0 0 0 0 6.8 3 3 0 0 0 2.9-1.66l.82.47a4 4 0 0 1-3.73 2.12 4.19 4.19 0 0 1-4.33-4.32zm17.12 3.28V65h-6.51v-8.4h6.45v.91h-5.49v2.82h3.54v.91h-3.54v2.83zm10.12.85V65h-1l-2.29-3.38h-3.31V65h-1v-8.4h4.38a2.54 2.54 0 0 1 2.73 2.52 2.42 2.42 0 0 1-1.85 2.38zm-6.63-4.21h3.38a1.61 1.61 0 1 0 0-3.2h-3.38z" transform="translate(0 -4.94)"/></g></g></svg>