<svg id="Layer_1" data-name="Layer 1" xmlns="http://www.w3.org/2000/svg" xmlns:xlink="http://www.w3.org/1999/xlink" viewBox="0 0 129.38 64.26"><defs><clipPath id="clip-path" transform="translate(-5.68 -2.13)"><rect x="6.39" y="6.62" width="29.28" height="31.71" style="fill:none"/></clipPath></defs><title>broad_epigenomics_logo</title><polygon points="40.07 36.13 37.11 36.13 37.11 35.68 37.91 35.68 37.91 29.6 37.11 29.6 37.11 29.15 40.07 29.15 40.07 29.6 39.28 29.6 39.28 35.68 40.07 35.68 40.07 36.13" style="fill:#231f20"/><polygon points="51.6 36.25 50.87 36.25 47.19 31.06 47.19 35.68 48.02 35.68 48.02 36.13 45.63 36.13 45.63 35.68 46.51 35.68 46.51 30.14 46.17 29.6 45.41 29.6 45.41 29.15 47.52 29.15 50.94 34.03 50.94 29.6 50.11 29.6 50.11 29.15 52.5 29.15 52.5 29.6 51.6 29.6 51.6 36.25" style="fill:#231f20"/><path d="M64.54,38.36H64V36.45h.59v.79a1.94,1.94,0,0,0,1.35.52A1,1,0,0,0,67,36.82c0-.48-.3-.82-1.29-1.45a5.47,5.47,0,0,1-1.44-1.08,1.85,1.85,0,0,1-.4-1.2A1.93,1.93,0,0,1,66,31.16a2.7,2.7,0,0,1,1.14.23v-.32h.57v1.81h-.57v-.73a1.86,1.86,0,0,0-1.12-.39.92.92,0,0,0-1,.89c0,.42.24.69,1.26,1.33l.9.59a2.53,2.53,0,0,1,.65.69,2,2,0,0,1,.29,1.09,2,2,0,0,1-2.11,2A2.84,2.84,0,0,1,64.54,38Z" transform="translate(-5.68 -2.13)" style="fill:#231f20"/><polygon points="72.68 36.13 69.27 36.13 69.27 35.68 70.3 35.68 70.3 29.78 68.47 29.78 68.47 30.65 67.89 30.65 67.89 28.85 68.47 28.85 68.47 29.15 73.48 29.15 73.48 28.85 74.06 28.85 74.06 30.65 73.48 30.65 73.48 29.78 71.66 29.78 71.66 35.68 72.68 35.68 72.68 36.13" style="fill:#231f20"/><polygon points="81.59 36.13 78.63 36.13 78.63 35.68 79.43 35.68 79.43 29.6 78.63 29.6 78.63 29.15 81.59 29.15 81.59 29.6 80.79 29.6 80.79 35.68 81.59 35.68 81.59 36.13" style="fill:#231f20"/><polygon points="90.74 36.13 87.33 36.13 87.33 35.68 88.36 35.68 88.36 29.78 86.53 29.78 86.53 30.65 85.95 30.65 85.95 28.85 86.53 28.85 86.53 29.15 91.54 29.15 91.54 28.85 92.12 28.85 92.12 30.65 91.54 30.65 91.54 29.78 89.72 29.78 89.72 35.68 90.74 35.68 90.74 36.13" style="fill:#231f20"/><path d="M110.27,31.73h-.88v4a2.32,2.32,0,0,1-1.31,2.37,3.76,3.76,0,0,1-1.54.33c-1.71,0-2.82-.94-2.82-2.4V31.73h-.8v-.44h3v.44h-.79v3.94c0,1.07.2,1.55.73,1.84a2,2,0,0,0,.88.2,1.85,1.85,0,0,0,2-2V31.74h-.88v-.45h2.45Z" transform="translate(-5.68 -2.13)" style="fill:#231f20"/><polygon points="114.33 36.13 110.93 36.13 110.93 35.68 111.95 35.68 111.95 29.78 110.13 29.78 110.13 30.65 109.55 30.65 109.55 28.85 110.13 28.85 110.13 29.15 115.14 29.15 115.14 28.85 115.72 28.85 115.72 30.65 115.14 30.65 115.14 29.78 113.32 29.78 113.32 35.68 114.33 35.68 114.33 36.13" style="fill:#231f20"/><polygon points="125.87 36.13 120.84 36.13 120.84 35.68 121.64 35.68 121.64 29.6 120.84 29.6 120.84 29.15 125.19 29.15 125.19 28.85 125.77 28.85 125.77 30.54 125.2 30.54 125.2 29.78 123 29.78 123 32.27 124.7 32.27 124.7 31.55 125.27 31.54 125.27 33.62 124.7 33.63 124.7 32.89 123 32.89 123 35.5 125.3 35.5 125.3 34.72 125.87 34.72 125.87 36.13" style="fill:#231f20"/><path d="M46.37,24.71h3.29a3.62,3.62,0,0,0,4-3.87,4,4,0,0,0-4-4.2H46.37Zm0-9.39h3c1.91,0,3.26-1.56,3.26-3.73S51.36,8,49.63,8H46.37ZM41.58,26V25h2.2V7.75h-2.2V6.66h8.93a4.82,4.82,0,0,1,4.84,4.81A4.63,4.63,0,0,1,51,15.82a6.18,6.18,0,0,1,2.37.62A4.87,4.87,0,0,1,56.29,21,5,5,0,0,1,51.07,26Z" transform="translate(-5.68 -2.13)" style="fill:#231f20"/><path d="M64.07,16h2.82a3.75,3.75,0,0,0,3.79-4.06C70.68,9.42,69.29,8,66.83,8H64.07ZM76.25,26H73.76c-1.74,0-2.06-.17-3-1.73l-4.37-6.95H64.07V25h2.2V26h-7V25h2.21V7.75H59.28V6.66h8.16c2.85,0,4.47.79,5.35,2.61a6.06,6.06,0,0,1,.58,2.62A4.75,4.75,0,0,1,69,17l4.23,6.51c.7,1.09,1.17,1.44,1.9,1.44h1.15Z" transform="translate(-5.68 -2.13)" style="fill:#231f20"/><path d="M80,16.35c0,5,2.76,8.54,6.57,8.54S93,21.28,93,16.35s-2.73-8.52-6.46-8.52S80,11.36,80,16.35m-2.91,0c0-5.52,4.29-10.07,9.48-10.07s9.4,4.58,9.4,10-4.29,10.06-9.4,10.06S77,21.84,77,16.38" transform="translate(-5.68 -2.13)" style="fill:#231f20"/><path d="M108.05,18.25,104.91,10l-3.31,8.24ZM115,26h-6.69V25h2.34l-2-5.28-7.51,0-2.15,5.29h2.44V26H95.72V24.92h1.53l7.63-18.87h1.06l7.34,18.87H115Z" transform="translate(-5.68 -2.13)" style="fill:#231f20"/><path d="M121.58,24.57h3.53c4,0,7.07-3.56,7-8.22s-3.11-8.19-7-8.19h-3.59ZM116.8,26V25H119V7.75h-2.2V6.66h8.66a9.69,9.69,0,0,1,0,19.37Z" transform="translate(-5.68 -2.13)" style="fill:#231f20"/><rect x="0.72" y="4.49" width="29.28" height="31.71" style="fill:#0079c1"/><g style="clip-path:url(#clip-path)"><path d="M102.45,22A66.91,66.91,0,0,1,54.17,42.8a66.94,66.94,0,0,1-48.49-21A70.63,70.63,0,0,0,54.17,40.7,70.63,70.63,0,0,0,102.45,22" transform="translate(-5.68 -2.13)" style="fill:#fff"/><path d="M102.45,15.05A66.94,66.94,0,0,1,54.17,35.81a66.93,66.93,0,0,1-48.49-21A70.62,70.62,0,0,0,54.17,33.71a70.63,70.63,0,0,0,48.28-18.66" transform="translate(-5.68 -2.13)" style="fill:#fff"/><path d="M102.45,8.07A66.94,66.94,0,0,1,54.17,28.83a67,67,0,0,1-48.49-21A70.62,70.62,0,0,0,54.17,26.73,70.63,70.63,0,0,0,102.45,8.07" transform="translate(-5.68 -2.13)" style="fill:#fff"/><path d="M5.68,23a66.85,66.85,0,0,1,97.28.22,71,71,0,0,0-48.75-19A71,71,0,0,0,5.68,23" transform="translate(-5.68 -2.13)" style="fill:#fff"/><path d="M5.68,30a66.85,66.85,0,0,1,97.28.22,71,71,0,0,0-48.75-19A71,71,0,0,0,5.68,30" transform="translate(-5.68 -2.13)" style="fill:#fff"/><path d="M5.68,37.06a66.85,66.85,0,0,1,97.28.22,71,71,0,0,0-48.75-19A70.94,70.94,0,0,0,5.68,37.06" transform="translate(-5.68 -2.13)" style="fill:#fff"/></g><rect x="0.72" y="46.15" width="126.66" height="0.75" style="fill:#c0c2c4"/><path d="M7.82,66.34V59.93h4.1v.87H8.79v1.88h2.67v.86H8.79v1.93h3.13v.87Z" transform="translate(-5.68 -2.13)" style="fill:#58595b"/><path d="M16.4,63.81H14.94v2.53H14V59.93H16.4a1.94,1.94,0,1,1,0,3.88Zm-.06-3h-1.4V63h1.4a1.08,1.08,0,1,0,0-2.15Z" transform="translate(-5.68 -2.13)" style="fill:#58595b"/><path d="M20.35,66.34V59.93h1v6.41Z" transform="translate(-5.68 -2.13)" style="fill:#58595b"/><path d="M27.55,65.67a2.37,2.37,0,0,1-1.77.73,2.24,2.24,0,0,1-1.65-.65c-.63-.63-.65-1.27-.65-2.61s0-2,.65-2.61a2.2,2.2,0,0,1,1.65-.65,2.26,2.26,0,0,1,2.33,2h-1a1.31,1.31,0,0,0-1.35-1.12,1.3,1.3,0,0,0-1,.4c-.32.34-.38.73-.38,2s.06,1.65.38,2a1.26,1.26,0,0,0,1,.4,1.36,1.36,0,0,0,1.06-.46,1.46,1.46,0,0,0,.31-1V63.7H25.78v-.82h2.34v1A2.42,2.42,0,0,1,27.55,65.67Z" transform="translate(-5.68 -2.13)" style="fill:#58595b"/><path d="M30.27,66.34V59.93h4.1v.87H31.25v1.88h2.66v.86H31.25v1.93h3.12v.87Z" transform="translate(-5.68 -2.13)" style="fill:#58595b"/><path d="M40.35,66.34l-3-4.51v4.51h-1V59.93h.89l3,4.5v-4.5h1v6.41Z" transform="translate(-5.68 -2.13)" style="fill:#58595b"/><path d="M47.37,65.75a2.44,2.44,0,0,1-3.32,0c-.63-.63-.65-1.27-.65-2.61s0-2,.65-2.61a2.44,2.44,0,0,1,3.32,0c.63.63.64,1.26.64,2.61S48,65.12,47.37,65.75Zm-.71-4.61a1.28,1.28,0,0,0-.95-.4,1.32,1.32,0,0,0-1,.4c-.31.34-.37.73-.37,2s.06,1.64.37,2a1.32,1.32,0,0,0,1,.4,1.28,1.28,0,0,0,.95-.4c.33-.34.38-.72.38-2S47,61.47,46.66,61.14Z" transform="translate(-5.68 -2.13)" style="fill:#58595b"/><path d="M54.85,66.34V62.06l-1.47,3.12h-.72l-1.52-3.12v4.28h-1V59.93h1l1.88,4,1.83-4h1v6.41Z" transform="translate(-5.68 -2.13)" style="fill:#58595b"/><path d="M58.21,66.34V59.93h1v6.41Z" transform="translate(-5.68 -2.13)" style="fill:#58595b"/><path d="M63.64,66.4A2.24,2.24,0,0,1,62,65.75c-.62-.63-.65-1.27-.65-2.61s0-2,.65-2.61a2.35,2.35,0,0,1,3.94,1.32h-1a1.27,1.27,0,0,0-1.3-1.11,1.26,1.26,0,0,0-.94.4c-.32.34-.39.73-.39,2s.07,1.65.39,2a1.22,1.22,0,0,0,.94.4A1.3,1.3,0,0,0,65,64.42h1A2.23,2.23,0,0,1,63.64,66.4Z" transform="translate(-5.68 -2.13)" style="fill:#58595b"/><path d="M69.65,66.4a2.91,2.91,0,0,1-2.27-.85l.64-.64a2.15,2.15,0,0,0,1.65.62c.84,0,1.32-.36,1.32-1a.83.83,0,0,0-.25-.67A1.37,1.37,0,0,0,70,63.6l-.75-.1A2.18,2.18,0,0,1,68.07,63a1.6,1.6,0,0,1-.48-1.23,1.89,1.89,0,0,1,2.15-1.87,2.64,2.64,0,0,1,2,.73l-.62.61a1.89,1.89,0,0,0-1.41-.5c-.75,0-1.16.42-1.16,1a.76.76,0,0,0,.23.6,1.27,1.27,0,0,0,.71.28l.76.12a2.09,2.09,0,0,1,1.19.48A1.71,1.71,0,0,1,72,64.51C72,65.69,71,66.4,69.65,66.4Z" transform="translate(-5.68 -2.13)" style="fill:#58595b"/><path d="M80.24,63.81H78.78v2.53h-1V59.93h2.43a1.94,1.94,0,1,1,0,3.88Zm-.06-3h-1.4V63h1.4a1.08,1.08,0,1,0,0-2.15Z" transform="translate(-5.68 -2.13)" style="fill:#58595b"/><path d="M87.72,66.34l-1.35-2.7H85.16v2.7h-1V59.93h2.48a1.83,1.83,0,0,1,2,1.87,1.69,1.69,0,0,1-1.28,1.71l1.48,2.83ZM86.6,60.8H85.16v2H86.6a1,1,0,1,0,0-2Z" transform="translate(-5.68 -2.13)" style="fill:#58595b"/><path d="M94.53,65.75a2.44,2.44,0,0,1-3.32,0c-.63-.63-.64-1.27-.64-2.61s0-2,.64-2.61a2.44,2.44,0,0,1,3.32,0c.63.63.65,1.26.65,2.61S95.16,65.12,94.53,65.75Zm-.7-4.61a1.32,1.32,0,0,0-1-.4,1.28,1.28,0,0,0-1,.4c-.32.34-.38.73-.38,2s.06,1.64.38,2a1.28,1.28,0,0,0,1,.4,1.32,1.32,0,0,0,1-.4c.32-.34.37-.72.37-2S94.15,61.47,93.83,61.14Z" transform="translate(-5.68 -2.13)" style="fill:#58595b"/><path d="M101.17,65.67a2.36,2.36,0,0,1-1.76.73,2.24,2.24,0,0,1-1.66-.65c-.62-.63-.65-1.27-.65-2.61s0-2,.65-2.61a2.21,2.21,0,0,1,1.66-.65,2.25,2.25,0,0,1,2.32,2h-1a1.36,1.36,0,0,0-2.3-.72c-.31.34-.38.73-.38,2s.07,1.65.38,2a1.27,1.27,0,0,0,1,.4,1.34,1.34,0,0,0,1-.46,1.46,1.46,0,0,0,.31-1V63.7H99.41v-.82h2.34v1A2.43,2.43,0,0,1,101.17,65.67Z" transform="translate(-5.68 -2.13)" style="fill:#58595b"/><path d="M107.43,66.34l-1.35-2.7h-1.21v2.7h-1V59.93h2.48a1.83,1.83,0,0,1,2,1.87,1.69,1.69,0,0,1-1.28,1.71l1.48,2.83Zm-1.12-5.54h-1.44v2h1.44a1,1,0,1,0,0-2Z" transform="translate(-5.68 -2.13)" style="fill:#58595b"/><path d="M114.19,66.34l-.44-1.29h-2.53l-.44,1.29h-1l2.34-6.41h.79l2.35,6.41Zm-1.68-5-1,2.85h2Z" transform="translate(-5.68 -2.13)" style="fill:#58595b"/><path d="M121.54,66.34V62.06l-1.48,3.12h-.72l-1.51-3.12v4.28h-1V59.93h1l1.87,4,1.84-4h1v6.41Z" transform="translate(-5.68 -2.13)" style="fill:#58595b"/></svg>