<svg id="Layer_1" data-name="Layer 1" xmlns="http://www.w3.org/2000/svg" viewBox="0 0 54.11 65.07"><title>hms_logo</title><g id="Layer_1-2" data-name="Layer 1-2"><g id="Layer_2-2" data-name="Layer 2-2"><g id="Layer_1-2-2" data-name="Layer 1-2-2"><g id="aTzVYJ-2"><path d="M54.11,0V22.85A36.75,36.75,0,0,1,53,31.13,46.93,46.93,0,0,1,45.85,47a62.54,62.54,0,0,1-8.5,9.88,66.68,66.68,0,0,1-9.61,7.63l-.65.39-.3.17c-.8-.56-1.62-1.11-2.42-1.7A70.48,70.48,0,0,1,9.83,49a52,52,0,0,1-7-12.51,39.56,39.56,0,0,1-2.37-9c-.16-1-.28-2.17-.35-3.29S0,22,0,20.8V.08C.49,0,53.17,0,54.11,0ZM1,19.88a3.84,3.84,0,0,0,0,.48,35.28,35.28,0,0,0,.22,4.82c.14,1.21.27,2.43.48,3.63a36.44,36.44,0,0,0,2.09,7.32c.5,1.27,1,2.52,1.62,3.74A8.41,8.41,0,0,0,6.7,42.22a.21.21,0,0,0,.07.15,5.23,5.23,0,0,0,.37.84c.94,1.47,1.86,3,2.86,4.39A56.19,56.19,0,0,0,15.21,54a75.14,75.14,0,0,0,6.08,5.76,64.84,64.84,0,0,0,5.21,4,.52.52,0,0,0,.68,0c.73-.51,1.48-1,2.21-1.51.24-.17.43-.39.66-.56.56-.41,1.12-.83,1.7-1.21s1.28-1.1,1.94-1.63c1.16-.94,2.26-1.94,3.33-3a20.44,20.44,0,0,0,2.56-2.7c.37-.51.9-.9,1.32-1.39.87-1,1.74-2,2.55-3.09A49.73,49.73,0,0,0,47.21,43a48.64,48.64,0,0,0,2.69-5.35,42,42,0,0,0,2.46-7.89,37,37,0,0,0,.72-5.35c.09-1.43,0-2.87,0-4.31a1.1,1.1,0,0,0-.06-.26C52.55,19.76,1.54,19.75,1,19.88Zm0-4H53.08v-.62c.06-3.63-.11-7.26.09-10.89V1H1.87a4.51,4.51,0,0,0-.52,0H1Zm18.88.72H14.27c-.48,0-.53.06-.54.54s0,1,0,1.45a3.73,3.73,0,0,0,.09.46h6a8.84,8.84,0,0,0,0-2.41Zm13,2.42a1.89,1.89,0,0,0,.1-.41V17c0-.57-.08-.46-.49-.47H27.28c-.41,0-.48.07-.49.47s0,1,0,1.57a1.89,1.89,0,0,0,.1.41Zm7,0H45.8a5.27,5.27,0,0,0,0-2.37,46.2,46.2,0,0,0-6,0Zm-33-2.37c-.08,0-.11-.06-.15-.06h-5c-.28,0-.37.15-.37.41v1.63c0,.38.06.44.45.44H6.47c.41,0,.48-.06.49-.46s0-1,0-1.57a2,2,0,0,0-.09-.35Z"/><path d="M1,19.88c.58-.13,51.59-.12,52.09,0a1.1,1.1,0,0,1,.06.26c0,1.44.06,2.88,0,4.31a37,37,0,0,1-.72,5.35A41.86,41.86,0,0,1,50,37.69,50.1,50.1,0,0,1,47.28,43a49,49,0,0,1-3.76,5.61c-.81,1.06-1.68,2.08-2.55,3.09a14.2,14.2,0,0,0-1.32,1.39A20.79,20.79,0,0,1,37,55.83c-1.07,1-2.17,2-3.33,3-.66.53-1.23,1.15-1.94,1.63s-1.14.8-1.7,1.21c-.23.17-.42.39-.66.56-.73.51-1.48,1-2.21,1.51a.52.52,0,0,1-.68,0c-1.8-1.25-3.53-2.6-5.21-4A73,73,0,0,1,15.21,54,56.19,56.19,0,0,1,10,47.6c-1-1.43-1.92-2.92-2.86-4.39a5.23,5.23,0,0,1-.37-.84s0-.12-.07-.15a8.27,8.27,0,0,1-1.37-2.35c-.59-1.22-1.12-2.47-1.62-3.74a36.44,36.44,0,0,1-2.09-7.32c-.21-1.2-.34-2.42-.48-3.63a35.28,35.28,0,0,1-.22-4.82A4,4,0,0,1,1,19.88ZM27.2,43.8c.08.28.13.5.18.72.12.49.19,1,.34,1.47a1.14,1.14,0,0,1,0,.73c-.16.54-.36,1.07-.47,1.62A2.52,2.52,0,0,1,26,50.11a1.31,1.31,0,0,0-.32.25.56.56,0,0,0-.09.79.53.53,0,0,0,.42.21,2.54,2.54,0,0,0,.87,0,4.11,4.11,0,0,0,1.62-.62,6.85,6.85,0,0,1,1.84-1l.1-.06a.91.91,0,0,1,.83-.09,4.85,4.85,0,0,0,1,.16H33c.24,0,.47.11.5.33a7,7,0,0,1,.08,1.44c0,.33-.33.46-.67.34s-.56-.25-.85-.37a3.56,3.56,0,0,0-.72-.23,1.1,1.1,0,0,0-1.33.81,1.08,1.08,0,0,0,0,.59.75.75,0,0,1-.06.71,3.41,3.41,0,0,0-.36.86.65.65,0,0,0,.78.85,2.74,2.74,0,0,1,2,.52,4.23,4.23,0,0,0,.83.4.46.46,0,0,0,.62-.19.42.42,0,0,0,0-.1.77.77,0,0,1,.54-.48,1.15,1.15,0,0,0,.83-.87,1.58,1.58,0,0,1,1.14-1.15c.22-.06.43-.13.64-.21a.88.88,0,0,0,.53-.49.86.86,0,0,0-.1-.16c-.45-.53-.46-.66-.1-1.27.14-.24.27-.48.39-.71a.89.89,0,0,0,0-.68,9.68,9.68,0,0,1-.27-1.06,1.52,1.52,0,0,0-.94-1.31L36,47l-.32-.22a2,2,0,0,1,1.22,0,2.34,2.34,0,0,0,.79.08.35.35,0,0,0,.37-.33.45.45,0,0,0,0-.16A2.14,2.14,0,0,0,36.65,45c-.62-.2-1.27-.34-1.91-.51a1.39,1.39,0,0,1-1-.66s.08-.07.11-.07h.47a3.6,3.6,0,0,0,3.11-1.46,2.69,2.69,0,0,1,.84-.7,1.54,1.54,0,0,0,.9-1.14,10.25,10.25,0,0,0,.2-1.46,1.26,1.26,0,0,1,1-1.3,4.14,4.14,0,0,0,.49-.19.46.46,0,0,0,.27-.59.48.48,0,0,0-.27-.27,7,7,0,0,0-1-.35l-.78-.19a4.54,4.54,0,0,1,.48-.39c.32-.19.64-.38,1-.55a4.07,4.07,0,0,0,1.2-.9A1.57,1.57,0,0,0,42.18,33c0-.51-.34-.67-.8-.46a1.13,1.13,0,0,0-.35.21,3.56,3.56,0,0,1-1.72.81,7,7,0,0,0-2,.55h-.1a1,1,0,0,1,.56-.54,1.71,1.71,0,0,0,1-1.16,1.62,1.62,0,0,1,1.15-1.21,1.59,1.59,0,0,0,.41-.21c.36-.26.35-.49,0-.72a1.32,1.32,0,0,0-1.12-.19,10,10,0,0,0-1.17.49,13.25,13.25,0,0,1-1.54.91,2,2,0,0,0-1.09.63.68.68,0,0,0-.28.07,2,2,0,0,1,.42-1.61,6.11,6.11,0,0,1,2.42-2,1.15,1.15,0,0,1,1.16,0c.15.08.31.14.48.21a1.38,1.38,0,0,0,1.51-.28,2.46,2.46,0,0,0,.52-.55,1.19,1.19,0,0,1,1.43-.57c.62.16,1-.26.83-.89a3.55,3.55,0,0,0-.28-.63c-.17-.39-.46-.75-.36-1.2a2.36,2.36,0,0,0-.18-1.48,1.89,1.89,0,0,0-1.94-1.38c-.43,0-.58.23-.44.64a3.18,3.18,0,0,0,.23.4,1.56,1.56,0,0,1,.17.37,1.7,1.7,0,0,1-.66,1.7,9.48,9.48,0,0,1-1.27.82,36.28,36.28,0,0,0-3.64,2.07,7.9,7.9,0,0,0-2.44,2.54,4.53,4.53,0,0,0-.7,2.66,6.6,6.6,0,0,0,1.7,3.87,4.17,4.17,0,0,1,.72,1,10.43,10.43,0,0,0,.6,1.09,1.4,1.4,0,0,1,.07,1.45,1.21,1.21,0,0,1-1.21.53,2.68,2.68,0,0,1-1.78-.75,8.86,8.86,0,0,1-1.93-2.61,4,4,0,0,0-.25-.56,4.49,4.49,0,0,1-.68-1.53.72.72,0,0,1,.08-.35c.1.12.16.17.2.23a2.77,2.77,0,0,0,.31.56.7.7,0,0,0,.44.23c.2,0,.3-.15.34-.33a3.06,3.06,0,0,0,.09-.74A2.84,2.84,0,0,0,30,33a2.63,2.63,0,0,1-.37-.29.71.71,0,0,1-.3-.61l.13-.1c.56-.36.55-.35.45-1s-.13-1-.17-1.45a1.1,1.1,0,0,1,.45-1.06.7.7,0,0,0,.27-.78,6,6,0,0,1,.13-3.32.9.9,0,0,0-.14-.88,2.44,2.44,0,0,1-.26-.57c-.13-.42-.24-.55-.69-.56A3.89,3.89,0,0,1,28.12,22c-.38-.15-.73-.35-1.12-.48a2,2,0,0,0-.85-.09c-.61.1-1.21.26-1.81.42a1.33,1.33,0,0,0-1.07,1.3,2.09,2.09,0,0,1,0,.5,1,1,0,0,1-.85-1,2.15,2.15,0,0,0,0-.62A1.08,1.08,0,0,0,21,21.52h0l-.18.11a1.71,1.71,0,0,0-.7,1.52,1.07,1.07,0,0,0,.48.89c.58.35,1.14.74,1.72,1.08s.59.53.31.93a.93.93,0,0,0-.12,1,.17.17,0,0,1-.07.13,1.13,1.13,0,0,1-.26,0,1.63,1.63,0,0,1-1.11-.7c-.42-.61-.86-.55-1.15.14a8.56,8.56,0,0,0-.24,1c-.08.31-.19.39-.5.29a5.41,5.41,0,0,1-.87-.34,23.77,23.77,0,0,1-2.4-1.39,6.08,6.08,0,0,1-2.6-3.39,2.17,2.17,0,0,0-.59-1,1.12,1.12,0,0,0-.94-.37c-.36,0-.42.35-.56.62a2.18,2.18,0,0,0-1.26-.18,1.25,1.25,0,0,0-.86.42c-.31.35-.29.61.09.87.14.1.35.16.42.3.2.39.34.81.52,1.23a2,2,0,0,0-.7,1.19.83.83,0,0,0,.62,1h0l1.74.07c.31,0,.43.1.47.4a1.28,1.28,0,0,1-.25,1,4.91,4.91,0,0,1-1.32,1.21.82.82,0,0,0-.35.43c-.12.43.27.78.8.7a9.92,9.92,0,0,0,1.53-.33c.75-.22.74-.24,1.25.36a.67.67,0,0,0,.9.24l.1-.07.19-.12c.36-.21.51-.17.67.22s.26.68.39,1a1.26,1.26,0,0,1-.89.33l-.75.12a.47.47,0,0,0-.48.44.55.55,0,0,0,.36.55,5.06,5.06,0,0,0,2.42.49,2.22,2.22,0,0,1,.89,0,2.76,2.76,0,0,1-.3.29A8.35,8.35,0,0,1,15,35.47a4.26,4.26,0,0,0-.92.35,1.08,1.08,0,0,1-1.29-.18,5.84,5.84,0,0,0-.56-.42,1.42,1.42,0,0,0-1.78.06.85.85,0,0,0-.18,1.19h0l.07.08a.89.89,0,0,1,.2,1,4.93,4.93,0,0,1-.22.53,6.07,6.07,0,0,0-.41.9,2,2,0,0,0-.07.85.55.55,0,0,0,.61.49.5.5,0,0,0,.28-.12A.6.6,0,0,0,11,40a.61.61,0,0,1,.68-.33,2.08,2.08,0,0,0,1.12-.26l.33-.14c.06.13.12.26.17.39.14.47.37.6.81.42a1.27,1.27,0,0,0,.47-.32c.23-.25.41-.52.61-.78a.89.89,0,0,1,1.17-.33,2.88,2.88,0,0,1-.13.65,4,4,0,0,1-.22.47c-.17.42.1.76.54.66a2.49,2.49,0,0,0,.69-.3,4.49,4.49,0,0,0,1.41-1.53c.14-.22.26-.43.56-.43a1.25,1.25,0,0,0,1-.65,3.31,3.31,0,0,1,.41-.5c.11.8.32.92,1,.63.24-.1.44-.25.68-.34a1.12,1.12,0,0,1,.6-.1c.74.15,1.48.35,2.21.54.34.1.42.25.41.61s0,.46,0,.69a.33.33,0,0,1-.29.37h-.52c-.66,0-1.31.1-2,.1A3.36,3.36,0,0,0,20,40.78a1.52,1.52,0,0,1-.48.31c-.44.2-.89.38-1.32.58s-.72.39-1.09.55a1.91,1.91,0,0,1-.62.13,8.77,8.77,0,0,0-1.15.1,1.35,1.35,0,0,0-.47.22.31.31,0,0,0-.13.42h0l.06.08a2.48,2.48,0,0,0,.71.58,7.88,7.88,0,0,0,1.49.49.75.75,0,0,1,.69.56c.18.57.44.66,1,.45h.16c.17.19.34.43.54.63s.56.2.61.63H18.27a1.59,1.59,0,0,1-1.43-.46,2.67,2.67,0,0,0-.44-.38,5.61,5.61,0,0,0-.87-.56,1.48,1.48,0,0,0-1.65.38.84.84,0,0,0-.22.52,2.56,2.56,0,0,0,.22.66c-.16.18-.34.36-.5.55A1.5,1.5,0,0,0,13,48.5c.05.38.21.53.61.55l.63.06a2.5,2.5,0,0,0,.06.67c.12.67.45.85,1.07.56a.87.87,0,0,1,.83,0,.67.67,0,0,0,.67,0l.42-.21a.74.74,0,0,1,1,.2,1.77,1.77,0,0,1,.28.43,1.84,1.84,0,0,0,1.15,1c.58.22,1,0,1-.64,0-.35.06-.71.11-1.06.22,0,.45-.05.67-.06h1.22a1.9,1.9,0,0,0,2-1.21c.1-.23.26-.44.35-.67a7.3,7.3,0,0,0,.26-.79c.22.06.4.12.59.16.49.12.67-.08.61-.58a10.56,10.56,0,0,1-.13-1.68,1.83,1.83,0,0,1,.71-1.41Z" style="fill:#b62025"/><path d="M1,15.92V1L1.4.9a4.51,4.51,0,0,1,.52,0H53.18V4.31c-.2,3.63,0,7.26-.09,10.89v.62H1ZM18.2,6.68a7.53,7.53,0,0,0,.07-.83.7.7,0,0,0-.62-.77h-.09c-.8-.09-.8-.09-.8-.89V4c0-1.07-.09-1.15-1.17-1.15H12.38a8.09,8.09,0,0,0-2.64.24,1.06,1.06,0,0,1-.5,0,6.36,6.36,0,0,0-1.78-.28c-1.24,0-2.47-.07-3.71-.07-.41,0-.58.2-.63.61A4.45,4.45,0,0,1,3,4.08c-.13.76-.13.76-.9.84a.74.74,0,0,0-.75.66.79.79,0,0,0,.51.94,3.35,3.35,0,0,0,.62.17.42.42,0,0,1,.39.36,2.17,2.17,0,0,1,.1.62,13.25,13.25,0,0,1-.11,2.09c-.11.69-.11.65-.71.8a.78.78,0,0,0-.68.82.82.82,0,0,0,.6,1H2.3c.63,0,.68.09.68.73,0,.25,0,.51,0,.76,0,.43.2.57.63.59l3.2.11H8.06a1.5,1.5,0,0,1,.71.21,1.47,1.47,0,0,0,1.7,0,1.6,1.6,0,0,1,.88-.22H16c.56,0,.66,0,.69-.56V12.9c0-.37.1-.49.45-.47a1.61,1.61,0,0,0,1.36-.5h.15c.41.53,1.09.43,1.73.59v1.1c0,.76.2,1,1,1H25a3.11,3.11,0,0,1,1.64.31,1.06,1.06,0,0,0,1.2-.09,1.28,1.28,0,0,1,.76-.22h5a.7.7,0,0,0,.77-.63,1.21,1.21,0,0,0,0-.19c0-.29,0-.57,0-.86s0-.44.46-.54a4.1,4.1,0,0,0,.5-.14c.28-.11.55-.26.53-.61a.88.88,0,0,0-.51-.85,2.73,2.73,0,0,0-.56-.15c-.28,0-.39-.18-.44-.45a10,10,0,0,1,0-2.32c0-.68.25-1,1-1.07.49,0,.61-.27.62-.76a.78.78,0,0,0-.62-.91h0a3.63,3.63,0,0,0-.45-.1.47.47,0,0,1-.42-.49V3.62c0-.6-.17-.77-.76-.78l-4.07-.12a5,5,0,0,0-1.88.33,1.42,1.42,0,0,1-1.07,0,3.22,3.22,0,0,0-1.07-.2h-4a2.26,2.26,0,0,0-.52,0,.55.55,0,0,0-.56.54h0c0,.41-.08.81-.11,1.22s-.12.46-.49.51H19.5a.73.73,0,0,0-.66.76.69.69,0,0,0,.53.82h.09a1.19,1.19,0,0,1,.46.06c.45,0,.52.12.53.59V10c0,.53-.09.6-.62.6h-.17a.68.68,0,0,0-.71.28l-.39.4c-.36-.62-.36-.62-1.1-.75l-.67-.13a1.41,1.41,0,0,0,0-.41,11.33,11.33,0,0,1,0-2.73c0-.37.07-.42.44-.48Zm19.37,3.81-.53.13a2.32,2.32,0,0,0-.44.16.75.75,0,0,0-.41,1v.11a.91.91,0,0,0,.81.48c.6.08.68.19.67.79a7.22,7.22,0,0,0,0,.93c0,.34.2.47.55.49.77,0,1.54.09,2.32.11s1.47,0,2.21,0a2.52,2.52,0,0,1,1.29.29,1.06,1.06,0,0,0,1.16,0,1.88,1.88,0,0,1,1.11-.26h4a3.45,3.45,0,0,0,.64,0,.43.43,0,0,0,.4-.46h0V13.08c0-.47.1-.56.56-.67h.23a.78.78,0,0,0,.65-.72.92.92,0,0,0-.61-.84,1.76,1.76,0,0,1-.45-.12.44.44,0,0,1-.38-.47V7.46A.4.4,0,0,1,51.67,7h.09a2.23,2.23,0,0,0,.51-.12A1,1,0,0,0,52.88,6a.82.82,0,0,0-.72-.79,1,1,0,0,1-.46-.08c-.34-.06-.41-.15-.43-.5s0-.55,0-.82c0-.65-.25-.86-.9-.87L49,2.83c-.49,0-1-.07-1.45-.06a9.79,9.79,0,0,0-1.62.1,3.16,3.16,0,0,0-.91.2,1.83,1.83,0,0,1-1.18,0,6.1,6.1,0,0,0-1.34-.19c-1.44,0-2.87,0-4.31-.07a.37.37,0,0,0-.42.31,5.61,5.61,0,0,0,0,.58,8.47,8.47,0,0,1-.1,1,.43.43,0,0,1-.41.41,5.67,5.67,0,0,0-1,.18,2.52,2.52,0,0,1-.13.47c-.14.69.11,1,.81,1.11s.75.14.75.83V10A1.1,1.1,0,0,0,37.57,10.49Z" style="fill:#b62025"/><path d="M19.83,16.64a8.91,8.91,0,0,1,0,2.42h-6a3.73,3.73,0,0,1-.09-.46V17.15c0-.45.06-.54.54-.54h4.89Z" style="fill:#fff"/><path d="M32.84,19.06h-6a1.89,1.89,0,0,1-.1-.41V17.08c0-.52.08-.47.49-.47h5.18c.41,0,.48.07.49.47s0,1,0,1.57A1.4,1.4,0,0,1,32.84,19.06Z" style="fill:#fff"/><path d="M39.83,19.06V16.71a46.2,46.2,0,0,1,6,0,5.27,5.27,0,0,1,0,2.37Z" style="fill:#fff"/><path d="M6.87,16.69a1.53,1.53,0,0,1,.08.37v1.57c0,.57-.08.46-.49.46H1.8c-.39,0-.44-.06-.45-.44V17c0-.26.09-.41.37-.41h5Z" style="fill:#fff"/><path d="M27.16,43.8a1.83,1.83,0,0,0-.71,1.41,10.56,10.56,0,0,0,.13,1.68c.06.5-.12.7-.61.58a2.46,2.46,0,0,1-.59-.16,7.3,7.3,0,0,1-.26.79c-.09.23-.25.44-.35.67a1.9,1.9,0,0,1-2,1.21H21.5a4.93,4.93,0,0,0-.66.07c0,.38-.08.72-.11,1.06,0,.62-.42.86-1,.64a1.84,1.84,0,0,1-1.15-1,1.77,1.77,0,0,0-.28-.43.74.74,0,0,0-1-.2l-.42.21a.67.67,0,0,1-.67,0,.87.87,0,0,0-.83,0c-.62.29-1,.11-1.07-.56a2.54,2.54,0,0,0-.06-.67l-.63-.1c-.4,0-.56-.17-.61-.55a1.51,1.51,0,0,1,.4-1.23c.16-.19.34-.37.5-.55a2.56,2.56,0,0,1-.22-.66.84.84,0,0,1,.22-.52,1.48,1.48,0,0,1,1.65-.38,5.61,5.61,0,0,1,.87.56,2.67,2.67,0,0,1,.44.38,1.59,1.59,0,0,0,1.43.46h1.16a2.71,2.71,0,0,0,.57,0c0-.43-.42-.44-.61-.63s-.37-.44-.54-.63h-.16c-.58.21-.84.12-1-.45a.75.75,0,0,0-.69-.56,7.88,7.88,0,0,1-1.49-.49,2.48,2.48,0,0,1-.71-.58.31.31,0,0,1,0-.44h0l.08-.06a1.35,1.35,0,0,1,.47-.22,11.15,11.15,0,0,0,1.15-.1,1.91,1.91,0,0,0,.62-.13c.37-.16.72-.37,1.09-.55s.88-.38,1.32-.58a1.37,1.37,0,0,0,.45-.3,3.36,3.36,0,0,1,2.66-1.22c.66,0,1.31-.06,2-.1h.52a.33.33,0,0,0,.29-.37h0v-.7a.57.57,0,0,0-.41-.61c-.73-.19-1.47-.39-2.21-.54a1.12,1.12,0,0,0-.6.1c-.24.09-.44.24-.68.34-.65.29-.86.17-1-.63a3.42,3.42,0,0,0-.42.43,1.25,1.25,0,0,1-1,.65c-.3,0-.42.21-.56.43a4.49,4.49,0,0,1-1.41,1.53,2.49,2.49,0,0,1-.69.3c-.44.1-.71-.24-.54-.66.06-.16.17-.31.22-.47s.09-.44.13-.65a.89.89,0,0,0-1.17.33c-.2.26-.38.53-.61.78A1.4,1.4,0,0,1,14,40c-.44.18-.67,0-.81-.42,0-.13-.11-.26-.17-.39l-.33.14a2.08,2.08,0,0,1-1.12.26.61.61,0,0,0-.68.33.72.72,0,0,1-.25.24.54.54,0,0,1-.77-.09.5.5,0,0,1-.12-.28A1.92,1.92,0,0,1,9.86,39a6.07,6.07,0,0,1,.41-.9,4.93,4.93,0,0,0,.22-.53.89.89,0,0,0-.2-1,.85.85,0,0,1,0-1.2l.08-.07a1.42,1.42,0,0,1,1.78-.06,5.84,5.84,0,0,1,.56.42,1.08,1.08,0,0,0,1.29.18,4.26,4.26,0,0,1,.92-.35,8.47,8.47,0,0,0,2.5-1.33,2.76,2.76,0,0,0,.3-.29,2.22,2.22,0,0,0-.89,0,5.06,5.06,0,0,1-2.42-.49.55.55,0,0,1-.36-.55c0-.28.24-.39.48-.44l.75-.12a1.26,1.26,0,0,0,.89-.33c-.13-.34-.24-.69-.39-1s-.31-.43-.67-.22l-.19.12a.65.65,0,0,1-.93-.07l-.07-.1c-.51-.6-.5-.58-1.25-.36a9.92,9.92,0,0,1-1.53.33c-.53.08-.92-.27-.8-.7a.82.82,0,0,1,.35-.43A5.1,5.1,0,0,0,12,28.24a1.29,1.29,0,0,0,.24-1c0-.3-.16-.39-.47-.4L10,26.72a.83.83,0,0,1-.69-.95h0v-.05a2,2,0,0,1,.7-1.19c-.18-.42-.32-.84-.52-1.23-.07-.14-.28-.2-.42-.3-.38-.26-.4-.52-.09-.87a1.25,1.25,0,0,1,.86-.42,2.18,2.18,0,0,1,1.26.18c.14-.27.2-.59.56-.62a1.12,1.12,0,0,1,.94.37,2.17,2.17,0,0,1,.59,1A6.12,6.12,0,0,0,15.83,26a23.77,23.77,0,0,0,2.4,1.39,5.41,5.41,0,0,0,.87.34c.31.1.42,0,.5-.29a8.56,8.56,0,0,1,.24-1c.29-.69.73-.75,1.15-.14a1.62,1.62,0,0,0,1.07.73h.26c0-.06.08-.11.07-.13a.93.93,0,0,1,.12-1c.28-.4.15-.66-.31-.93s-1.14-.73-1.72-1.08A1.07,1.07,0,0,1,20,23a1.71,1.71,0,0,1,.7-1.52,1.07,1.07,0,0,1,1.51.22,1.74,1.74,0,0,1,.11.18,2.15,2.15,0,0,1,0,.62,1,1,0,0,0,.85,1,1.4,1.4,0,0,1,0-.5,1.33,1.33,0,0,1,1.07-1.3c.6-.16,1.2-.32,1.81-.42a2,2,0,0,1,.85.09c.39.13.74.33,1.12.48a3.75,3.75,0,0,0,1.35.35c.45,0,.56.14.69.56a2.44,2.44,0,0,0,.26.57.9.9,0,0,1,.14.88,6,6,0,0,0-.13,3.32.7.7,0,0,1-.27.78,1.1,1.1,0,0,0-.45,1.06,7.86,7.86,0,0,0,.17,1.45c.08.45.11.61-.45,1l-.13.1a.71.71,0,0,0,.3.61A2.47,2.47,0,0,0,30,33a2.84,2.84,0,0,1,1.12,2.18,3.06,3.06,0,0,1-.09.74.31.31,0,0,1-.29.33h0a.7.7,0,0,1-.44-.23,2.77,2.77,0,0,1-.31-.56c0-.06-.1-.11-.2-.23,0,.16-.11.27-.08.35a4.49,4.49,0,0,0,.68,1.53,4,4,0,0,1,.25.56,8.86,8.86,0,0,0,1.93,2.61A2.69,2.69,0,0,0,34.3,41a1.21,1.21,0,0,0,1.21-.53,1.4,1.4,0,0,0-.1-1.5,10,10,0,0,1-.61-1.11,4.17,4.17,0,0,0-.72-1A6.63,6.63,0,0,1,32.38,33a4.53,4.53,0,0,1,.7-2.66,7.9,7.9,0,0,1,2.44-2.54,36.28,36.28,0,0,1,3.64-2.07,9.48,9.48,0,0,0,1.27-.82,1.7,1.7,0,0,0,.66-1.7,1.56,1.56,0,0,0-.17-.37,3.18,3.18,0,0,1-.23-.4c-.14-.41,0-.64.44-.64a1.89,1.89,0,0,1,1.94,1.38,2.36,2.36,0,0,1,.18,1.48c-.1.45.19.81.36,1.2a3.55,3.55,0,0,1,.28.63c.14.63-.21,1-.83.89a1.19,1.19,0,0,0-1.43.57,2.46,2.46,0,0,1-.52.55,1.38,1.38,0,0,1-1.51.28c-.17-.07-.33-.13-.48-.21a1.15,1.15,0,0,0-1.16,0,6.11,6.11,0,0,0-2.42,2,2,2,0,0,0-.42,1.61c.12,0,.24,0,.28-.07a2,2,0,0,1,1.09-.63A12.87,12.87,0,0,0,38,30.57a10,10,0,0,1,1.17-.49,1.32,1.32,0,0,1,1.12.19c.36.23.37.46,0,.72a1.59,1.59,0,0,1-.41.21,1.62,1.62,0,0,0-1.15,1.21,1.71,1.71,0,0,1-1,1.16,1,1,0,0,0-.56.54s.08.06.1,0a7,7,0,0,1,2-.55A3.47,3.47,0,0,0,41,32.8a1.13,1.13,0,0,1,.35-.21c.46-.21.76,0,.8.46a1.59,1.59,0,0,1-.42,1.23,4.07,4.07,0,0,1-1.2.9c-.33.17-.65.36-1,.55a4.54,4.54,0,0,0-.48.39l.78.19a7,7,0,0,1,1,.35.46.46,0,0,1,.27.59.48.48,0,0,1-.27.27,4.14,4.14,0,0,1-.49.19,1.26,1.26,0,0,0-1,1.3,10.83,10.83,0,0,1-.17,1.38,1.54,1.54,0,0,1-.9,1.14,2.69,2.69,0,0,0-.84.7,3.6,3.6,0,0,1-3.11,1.46h-.47a.14.14,0,0,0-.11.07,1.39,1.39,0,0,0,1,.66c.64.17,1.29.31,1.91.51A2.13,2.13,0,0,1,38,46.42a.34.34,0,0,1-.18.46.45.45,0,0,1-.16,0,2.34,2.34,0,0,1-.79-.08,2,2,0,0,0-1.22,0L36,47l.58.25a1.52,1.52,0,0,1,.94,1.31,9.68,9.68,0,0,0,.27,1.06.89.89,0,0,1,0,.68c-.12.23-.25.47-.39.71-.36.61-.35.74.1,1.27a.86.86,0,0,1,.1.16A.85.85,0,0,1,37,53a5.18,5.18,0,0,1-.65.26,1.58,1.58,0,0,0-1.14,1.15,1.15,1.15,0,0,1-.83.87.77.77,0,0,0-.54.48.46.46,0,0,1-.56.33h-.1a4.23,4.23,0,0,1-.83-.4,2.74,2.74,0,0,0-2-.52.65.65,0,0,1-.78-.85,3.41,3.41,0,0,1,.36-.86.75.75,0,0,0,.06-.71,1.09,1.09,0,0,1,.75-1.36.93.93,0,0,1,.44,0,3.56,3.56,0,0,1,.72.23c.29.12.56.26.85.37s.65,0,.67-.34a7,7,0,0,0-.08-1.44c0-.22-.26-.32-.5-.33h-.7a4.85,4.85,0,0,1-1-.16.91.91,0,0,0-.83.09l-.1.06a6.85,6.85,0,0,0-1.84,1,4.11,4.11,0,0,1-1.62.62,3.17,3.17,0,0,1-.87,0,.56.56,0,0,1-.54-.58.54.54,0,0,1,.21-.42,1.31,1.31,0,0,1,.32-.25,2.51,2.51,0,0,0,1.29-1.77c.11-.55.31-1.08.47-1.62a1.14,1.14,0,0,0,0-.73c-.15-.47-.22-1-.34-1.47A2.45,2.45,0,0,0,27.16,43.8Zm5.72,10.85h.55a1.07,1.07,0,0,0,1.16-.86A1,1,0,0,1,35,53.2c.17-.12.32-.28.49-.4a2.62,2.62,0,0,1,.48-.22,1.37,1.37,0,0,1,.35-.08v-.31a1.67,1.67,0,0,1,.32-1.43,1.12,1.12,0,0,0,.18-1.15,3.61,3.61,0,0,1-.23-1.13.73.73,0,0,0-.5-.71,5.22,5.22,0,0,0-.56-.18A4.53,4.53,0,0,1,34,46.66a.59.59,0,0,1-.24-.67c.42,0,.82.13,1.22.14a8.12,8.12,0,0,0,1.21-.1,1.06,1.06,0,0,0,.34-.16,2.12,2.12,0,0,0-.21-.36.7.7,0,0,0-.32-.13l-1-.25a3.49,3.49,0,0,1-2.49-1.74c-.14-.24-.44-.5-.2-.77s.54,0,.8.09a2.71,2.71,0,0,0,3.67-1l.08-.15A.78.78,0,0,1,37.4,41a1.3,1.3,0,0,0,1-1.13c0-.23.08-.46.1-.69a2.14,2.14,0,0,1,1-1.83c.15-.09.28-.22.1-.49A4.34,4.34,0,0,0,39,37a3,3,0,0,0-.67.2.29.29,0,0,1-.37-.15.31.31,0,0,1,0-.23,2.39,2.39,0,0,1,.2-.43A4.27,4.27,0,0,1,40,34.7a1.71,1.71,0,0,0,.47-.23c.09-.06.12-.2.21-.39a4.84,4.84,0,0,0-3.54,1.1,1.93,1.93,0,0,1-.3.27.71.71,0,0,1-.47.1c-.09,0-.17-.25-.18-.39a1.92,1.92,0,0,1,1-1.93,2.32,2.32,0,0,0,1-1.37.81.81,0,0,0,0-.31.74.74,0,0,0-.21,0c-.56.22-1.12.43-1.66.69a2.1,2.1,0,0,0-.66.56,4.92,4.92,0,0,0-.41.7c-.21.33-.47.35-.66,0a2.51,2.51,0,0,1-.28-.93,3.74,3.74,0,0,1,1-2.77A8.7,8.7,0,0,1,37.68,28a1.49,1.49,0,0,1,1.73,0,1,1,0,0,0,1.21,0,3.26,3.26,0,0,0,.65-.58,2.65,2.65,0,0,1,1.41-1s0-.06.09-.15a3.51,3.51,0,0,0-.33-.34.49.49,0,0,1-.17-.66,1,1,0,0,1,.13-.33,2.07,2.07,0,0,0,0-1.47.46.46,0,0,0-.49-.36,1.86,1.86,0,0,0-.09.47,2.45,2.45,0,0,1-.72,1.61,7.83,7.83,0,0,1-1.22,1c-.51.34-1.09.59-1.63.9-.79.44-1.6.87-2.36,1.36a6.38,6.38,0,0,0-2.18,2.23,3.93,3.93,0,0,0,0,4.15c.25.43.56.84.85,1.25.43.62.9,1.22,1.31,1.85a3.25,3.25,0,0,1,.5,2.23,1.57,1.57,0,0,1-.22.64,1.92,1.92,0,0,1-1.92,1A3.61,3.61,0,0,1,33,41.37a5.11,5.11,0,0,1-1.61-1.24,11.55,11.55,0,0,1-2.55-4.78,2.34,2.34,0,0,0-1.16-1.71,1.24,1.24,0,0,1-.22-.18c-.46-.41-.64-.4-1,.1-.18.23-.33.48-.66.51l-.59-.51-.35.47-1.33,1.75a1.33,1.33,0,0,0-.14.19c-.24.41-.13.7.34.83a4.58,4.58,0,0,0,.63.1,4.27,4.27,0,0,1,2.79,1.63,4,4,0,0,1,.92,3.59A4.09,4.09,0,0,0,28,43.79a17.78,17.78,0,0,0,.52,1.9,1.42,1.42,0,0,1-.12,1.38,3.54,3.54,0,0,0-.23.53c-.25.68-.5,1.38-.76,2.07-.06.18-.18.34,0,.57a1.18,1.18,0,0,0,1-.38,12.94,12.94,0,0,0,.89-1.07,4.87,4.87,0,0,0,.32-.47c.34.19.63.37,1,.1a.34.34,0,0,1,.31,0A2.8,2.8,0,0,0,32.5,49a3.5,3.5,0,0,1,1,.25,1.13,1.13,0,0,1,.71,1.1,4.1,4.1,0,0,0,.1.69,1.32,1.32,0,0,1-.59,1.42,2.83,2.83,0,0,1-.71.37c-.45.13-.91.2-1.36.31a1.85,1.85,0,0,0-.63.27c-.25.18-.24.42,0,.64a.83.83,0,0,0,1.17.13h0c.4-.25.52-.2.61.26ZM23.24,26.5l.24.1c.38.18.42.31.22.67a1,1,0,0,1-.6.53,2.06,2.06,0,0,1-1.93-.28c-.11-.08-.19-.19-.3-.27-.32-.21-.57-.11-.63.26a1.67,1.67,0,0,0,0,.63,5,5,0,0,0,.19.63c-.78.88-1.53,1.77-2.33,2.62a4.38,4.38,0,0,1-1.76,1.21,4.17,4.17,0,0,0-.69.43,3.28,3.28,0,0,0,.61.18A6.31,6.31,0,0,0,20.5,32a1.9,1.9,0,0,1,.33-.22c.26-.13.41,0,.44.25a2.81,2.81,0,0,1,0,.58.25.25,0,0,0,.27.25.25.25,0,0,0,.16-.06l.27-.23c.28-.23.45-.19.54.15a3.7,3.7,0,0,1,.13.74,5.76,5.76,0,0,1-.35,2.29c0,.17-.2.35,0,.55.3,0,.46-.26.62-.48.35-.46.68-.94,1-1.42a6.19,6.19,0,0,0,.93-2,.36.36,0,0,1,.21-.29.44.44,0,0,1,.31.2c.12.15.18.34.29.5a2.22,2.22,0,0,0,.28.33c.57-.29.39-.92.68-1.31a18.39,18.39,0,0,0,1.24,1.41,2.07,2.07,0,0,0,1.71.57c-.1-.43-.09-.47-.49-.73a2.22,2.22,0,0,1-.83-1.36.39.39,0,0,1,.19-.52h.09c.35-.08.39-.32.39-.61v-1.8a1,1,0,0,1,.36-.93.33.33,0,0,0,.14-.17c0-.55.26-1.12-.13-1.63a.36.36,0,0,1-.05-.51h0l.05-.05a1.78,1.78,0,0,0,.44-1c.08-.34.1-.61-.3-.76a.3.3,0,0,1-.17-.21c0-.35-.31-.45-.59-.57s-.76-.39-1.15-.56a7.28,7.28,0,0,0-.93-.32,1.14,1.14,0,0,0-.45,0c-.38.07-.76.15-1.13.25a2.22,2.22,0,0,0-.85.33c-.32.29-.07.8-.3,1.18a1.19,1.19,0,0,0,.25.49c.12.14.41.37.57.58a5.51,5.51,0,0,1,.45.73.62.62,0,0,1,0,.62c-.13.28-.28.32-.55.15s-.37-.29-.58-.4C23.57,25.79,23.32,26,23.24,26.5ZM25.6,46.4a4.56,4.56,0,0,0,.13-.53,4,4,0,0,0,0-.69,2.56,2.56,0,0,1,.55-1.68,9.1,9.1,0,0,1,.61-.78,2.07,2.07,0,0,0,.34-2.32c-.23-.54-.54-.66-1.11-.5a10.29,10.29,0,0,1-1.35.35c-.59.09-1.2.07-1.8.13a3.77,3.77,0,0,0-2.77,1.28.83.83,0,0,1-.43.23,6.24,6.24,0,0,0-.94.26,9.79,9.79,0,0,1-2.07.91.27.27,0,0,0-.27.27.17.17,0,0,0,0,.07,1.09,1.09,0,0,0,1,.18c.49-.06.84,0,1,.54a.2.2,0,0,1,.12.08h.32c.36,0,.46,0,.58.31a2.52,2.52,0,0,0,.94,1.15,3,3,0,0,1,.67.71.61.61,0,0,1-.17.85l-.19.08a1.94,1.94,0,0,1-.68,0,13.35,13.35,0,0,0-2,0,7.08,7.08,0,0,1-2.25,0,2.26,2.26,0,0,0-1.31.1c-.22.09-.43.2-.4.55l1.21.6v.64a3.89,3.89,0,0,1,.6.22.78.78,0,0,0,.93-.06,1.26,1.26,0,0,1,1.54-.08c.46.22,1,.29,1,.91a.28.28,0,0,0,.1.14c.14.11.29.13.4,0l.11-.2a1.68,1.68,0,0,1,1.7-1h1.45a.82.82,0,0,0,.74-.38c.17-.28.36-.55.54-.82a.67.67,0,0,0,0-.72,2,2,0,0,0-.28-.37,1.13,1.13,0,0,1,0-1.58l.07-.07a.31.31,0,0,1,.43-.1.31.31,0,0,1,.13.17,2.57,2.57,0,0,1,.23.6A.81.81,0,0,0,25.6,46.4ZM19.5,28.82l-.58-.22a11.41,11.41,0,0,1-5-3.4,6.64,6.64,0,0,0-.51-.55c-.65-.61-1.41-1.09-2-1.76a.92.92,0,0,0-1.05-.3c-.2.79,0,1.17.6,1.43.18.08.37.15.41.38s-.14.38-.33.5a2.69,2.69,0,0,0-.5.39c-.19.2-.14.38.1.52.66.42.66.42,1.42.11h.16a1.93,1.93,0,0,1,.6,2.44c-.14.27-.32.52-.48.79a3.12,3.12,0,0,0-.15.39c.79.17,1.19-.55,1.84-.71a2.19,2.19,0,0,1,.12.33c.09.77.18.84.89.58A.81.81,0,0,1,16,30a2.69,2.69,0,0,1,.33.54c.12.22.22.46.35.67.27.41.55.44.91.11l.09-.08c.52-.6,1-1.19,1.56-1.81A2.73,2.73,0,0,0,19.5,28.82Zm-8.58,9.72c.73.54,1.14.49,1.67-.19h0c.23-.27.35-.27.61,0a2.41,2.41,0,0,0,.54.41c.39.2.59.14.72-.27a1,1,0,0,1,1-.69,4,4,0,0,0,.84-.15c.48-.15.69,0,.72.5v.79c.45,0,.47,0,.64-.29s.46-.8.68-1.21c.13-.26.22-.54.54-.66l.15.06c.46.27.57.27.85-.18a1,1,0,0,1,1-.52c.56,0,.76-.14.91-.7A10,10,0,0,0,22.13,34c0-.49-.13-.64-.61-.57s-.55.09-.8-.36c-.12-.21-.28-.3-.48-.2a3.39,3.39,0,0,0-.72.46c-.58.49-1.12,1-1.7,1.5a8.73,8.73,0,0,1-2.24,1.33l-3.73,1.45a1.71,1.71,0,0,0-.47.23A.86.86,0,0,0,10.92,38.54ZM24.26,25.6a1.65,1.65,0,0,0-.7-.94c-.34-.26-.71-.49-1.06-.72a1.34,1.34,0,0,1-.72-1.4,1,1,0,0,0,0-.24.34.34,0,0,0-.38-.3.24.24,0,0,0-.14.05.93.93,0,0,0-.35.36,1.12,1.12,0,0,0,.4,1.48q1.19.78,2.4,1.53A2.72,2.72,0,0,0,24.26,25.6ZM12,37.05a3.68,3.68,0,0,0,.47-.15c.25-.11.33-.33.14-.51a4,4,0,0,0-.83-.59.46.46,0,0,0-.4.11.89.89,0,0,0,0,.89C11.48,37,11.71,37,12,37.05Zm4.44,9.7a1.19,1.19,0,0,0-1-.87.33.33,0,0,0-.43.17h0a.69.69,0,0,0,.33.74,1.19,1.19,0,0,0,1.07-.06ZM12.82,23.13a.93.93,0,0,0-.38-.83c-.17-.1-.29-.08-.39.09a.7.7,0,0,0,.25.92.46.46,0,0,0,.36.06C12.76,23.33,12.8,23.16,12.82,23.13Z"/><path d="M18.2,6.68l-1,.17c-.37.06-.44.11-.44.48a11.33,11.33,0,0,0,0,2.73,1.41,1.41,0,0,1,0,.41l.67.13c.74.13.74.13,1.1.75l.39-.4a.68.68,0,0,1,.71-.28h.17c.53,0,.61-.07.62-.6V7.45c0-.47-.08-.54-.53-.59a1.19,1.19,0,0,1-.46-.06.7.7,0,0,1-.7-.68.49.49,0,0,1,0-.12.73.73,0,0,1,.66-.76h.47c.37,0,.45-.13.49-.51s.06-.81.11-1.22a.55.55,0,0,1,.5-.6h0a2.26,2.26,0,0,1,.52,0h3.85a3.22,3.22,0,0,1,1.07.2,1.42,1.42,0,0,0,1.07,0,5,5,0,0,1,1.88-.33l4.07.12c.59,0,.74.18.76.78v.93a.47.47,0,0,0,.42.49,3.63,3.63,0,0,1,.45.1.79.79,0,0,1,.63.9h0c0,.49-.13.72-.62.76-.7.06-.93.39-1,1.07a10,10,0,0,0,0,2.32.43.43,0,0,0,.44.45,2.73,2.73,0,0,1,.56.15.88.88,0,0,1,.51.85c0,.35-.25.5-.53.61l-.5.14c-.41.1-.42.1-.46.54,0,.29,0,.57,0,.86a.7.7,0,0,1-.57.81H28.36a1.28,1.28,0,0,0-.76.22,1.06,1.06,0,0,1-1.2.09,3.11,3.11,0,0,0-1.64-.31H21.15c-.75-.05-.94-.26-1-1v-1.1c-.64-.16-1.32-.06-1.73-.59h-.15a1.61,1.61,0,0,1-1.36.5c-.35,0-.43.1-.45.47s0,.74,0,1.1c0,.54-.13.61-.69.56H11.35a1.6,1.6,0,0,0-.88.22,1.47,1.47,0,0,1-1.7,0,1.5,1.5,0,0,0-.71-.21H6.84l-3.2-.11c-.43,0-.58-.16-.63-.59,0-.25,0-.51,0-.76,0-.64,0-.73-.68-.73a.82.82,0,0,1-.85-.79.75.75,0,0,1,0-.21.78.78,0,0,1,.68-.82c.6-.15.65-.18.71-.8S3,8.37,3,7.67a2.24,2.24,0,0,0-.08-.57.42.42,0,0,0-.39-.36,3.35,3.35,0,0,1-.62-.17.79.79,0,0,1-.51-.94A.73.73,0,0,1,2.13,5c.77-.08.77-.08.9-.84a4.8,4.8,0,0,1,.09-.75A.54.54,0,0,1,3.6,2.8h.15c1.24,0,2.47,0,3.71.07a6.36,6.36,0,0,1,1.78.28,1.06,1.06,0,0,0,.5,0,8.09,8.09,0,0,1,2.64-.24c1.07.06,2.14,0,3.21,0S16.76,3,16.76,4v.17c0,.8,0,.8.8.89a.69.69,0,0,1,.71.69v.08A6.09,6.09,0,0,1,18.2,6.68ZM32,3.46c-.37,0-.68-.08-1-.08H28.16c-.78.07-1,.38-1,1.15V12.1c0,.27.14.36.39.28a8.67,8.67,0,0,1,2.54-.18h1.45c.45,0,.43-.09.46-.45V4A1.63,1.63,0,0,0,32,3.46ZM9.86,12.38c.53-.06,1-.13,1.42-.15h2.21c.32,0,.64-.06,1-.09V4c0-.46-.1-.56-.55-.56h-3a2,2,0,0,0-.73.17.76.76,0,0,0-.5.71v7.57A4,4,0,0,0,9.86,12.38ZM9.44,8.19V4.45a.86.86,0,0,0-.73-.92A6.81,6.81,0,0,0,7.6,3.31H5.91c-.56,0-.71.08-.72.7v6a11.69,11.69,0,0,0,0,1.45c0,.61.14.66.76.73h.17A11.62,11.62,0,0,1,9,12.4c.31.07.43-.05.47-.36s0-.43,0-.64Zm15.4,1.46c-.52,0-.94.19-1.38-.09a2,2,0,0,0,.42-1.3V7a2.75,2.75,0,0,0,0-.81,4,4,0,0,0-.39-.67s.09-.09.14-.09a6.05,6.05,0,0,1,2.08,0,1,1,0,0,1,.8.94A1.15,1.15,0,0,1,26,7.49c-.15.12-.31.22-.48.35a4.26,4.26,0,0,0,.86,1.35,1.92,1.92,0,0,0,.46.21c0-.22.05-.43.06-.65V4.56c0-.74-.22-1-1-1.1-1-.09-2-.07-3-.09a.24.24,0,0,0-.21.08c0,.38-.07.75-.08,1.11v6.7a2.81,2.81,0,0,0,0,.41c0,.42.15.54.58.55h1.34a5.23,5.23,0,0,1,1.67.18,4.1,4.1,0,0,0,.49.06,6.86,6.86,0,0,0,.07-2.67s-.1-.07-.15-.06c-.67.07-1-.34-1.33-.85a4.91,4.91,0,0,0-.28-.5,1.53,1.53,0,0,0-.31-.26A1.36,1.36,0,0,0,24.84,9.65Zm7.94-6.16a1.19,1.19,0,0,0,.15.35,1.76,1.76,0,0,1,.36,1.25V13a.42.42,0,0,1-.36.47H29.65a10,10,0,0,0-1.1.11.52.52,0,0,0-.49.43,2.74,2.74,0,0,0,.5.08h4.6c.51,0,.63-.11.64-.61v-1c0-.48.1-.58.57-.61h.46a.43.43,0,0,0,.38-.45.42.42,0,0,0-.4-.41h-.35c-.6,0-.63,0-.65-.61,0-.83-.07-1.66-.1-2.5a3.54,3.54,0,0,1,.17-1.37l1-.1a.36.36,0,0,0,.39-.31v0a.41.41,0,0,0-.35-.46,5.77,5.77,0,0,0-.58-.08c-.48,0-.5,0-.53-.55V4C33.74,3.33,33.43,3.17,32.78,3.49Zm-10.87,0c-.58-.31-.83-.19-.88.37,0,.37-.09.74-.1,1.1a.47.47,0,0,1-.42.48h-.46a1.29,1.29,0,0,0-.5.14.32.32,0,0,0-.16.44.31.31,0,0,0,.22.18,3.67,3.67,0,0,0,.74.11c.43,0,.55.16.56.59v3.43c0,.42-.14.55-.55.6l-.81.09a.38.38,0,0,0-.37.41h0c0,.24.2.32.41.33h.76a.44.44,0,0,1,.48.4h0c0,.35.08.69.1,1,0,.56,0,.58.57.68A2.91,2.91,0,0,0,22,14h3.5a.55.55,0,0,0,.59-.27,1.38,1.38,0,0,0-.36-.23,3.07,3.07,0,0,0-.74-.1H22c-.53,0-.61-.08-.61-.61,0-2.21-.06-4.43-.08-6.64V4.81a1.27,1.27,0,0,1,.36-1,1.55,1.55,0,0,0,.24-.27Zm-20,7.89c.29.34.29.34,1,.43s.68.23.62.81a4,4,0,0,0,0,.69c0,.41.14.49.55.51l1.4.11H8.1c.21,0,.43,0,.51-.33a1.11,1.11,0,0,0-.35-.16,12.63,12.63,0,0,0-1.51-.12H4.54c-.37,0-.45-.08-.48-.44,0-.52-.08-1-.08-1.57V5.48a4.18,4.18,0,0,1,0-1,3.82,3.82,0,0,1,.57-.92c-.44-.35-.85-.22-.91.3v1a.51.51,0,0,1-.47.55H3.11a3.4,3.4,0,0,0-.75.09c-.24,0-.36.12-.36.34s.18.29.37.31H3a.55.55,0,0,1,.55.55h0c0,1.12.08,2.24.09,3.37,0,.53-.13.68-.64.79a4.36,4.36,0,0,0-.52.11.52.52,0,0,0-.53.44Zm8.73,2.43a1.8,1.8,0,0,0,.4.1h4.6c.41,0,.51-.11.53-.52s0-.66,0-1,.18-.55.58-.58h.52c.36,0,.51-.16.53-.43s-.16-.43-.55-.45h-.52c-.36,0-.44-.1-.48-.46a8,8,0,0,1-.07-1.1c0-.82,0-1.63.07-2.44,0-.51.07-.55.58-.59a1.87,1.87,0,0,0,.66-.15.43.43,0,0,0,.17-.38.55.55,0,0,0-.29-.31,1.77,1.77,0,0,0-.46,0c-.57,0-.71-.16-.74-.73V3.89a.41.41,0,0,0-.26-.47c-.23-.09-.45-.13-.63.17a2.74,2.74,0,0,1,.47,2.08v6.69a2.25,2.25,0,0,1-.06.63c-.1.39-.22.49-.61.48l-3.5-.05a1,1,0,0,0-.91.44Zm11.1-1.19a.53.53,0,0,0,.6-.45v0c0-.71,0-1.43.06-2.14V8.94c0-.37.06-1,.07-1.45V4.4c0-.22,0-.47-.28-.6A1.13,1.13,0,0,0,21.62,5v5.77c0,.59.11,1.23.15,1.92Zm11.12,0A6.21,6.21,0,0,0,33,12V4.66a1.18,1.18,0,0,0-.14-.55.25.25,0,0,0-.34-.1.26.26,0,0,0-.13.2,4.11,4.11,0,0,0-.08.86v6.69a3.42,3.42,0,0,0,.09.63.31.31,0,0,0,.35.28l.09,0Zm-28.48,0A.56.56,0,0,0,4.9,12V4.41a5.59,5.59,0,0,0-.08-.59.71.71,0,0,0-.57.72v7.22a4.79,4.79,0,0,0,.16.92Zm10.93,0c0-.53.12-1,.12-1.48V4.67a1.14,1.14,0,0,0-.06-.45A.56.56,0,0,0,15.09,4c-.19,0-.21.18-.22.34V12a.55.55,0,0,0,.4.67h0Zm17.26.48c-.16-.42-.38-.61-.73-.61H28.41a2.43,2.43,0,0,0-.87.26.41.41,0,0,0-.17.37c0,.11.22.2.35.22a3.05,3.05,0,0,0,.52-.05c.69-.06,1.38-.13,2.08-.14a14.62,14.62,0,0,1,1.62.06,3.82,3.82,0,0,0,.66-.12ZM15,13.07c-.12-.4-.32-.53-.59-.56a8.39,8.39,0,0,0-1-.06c-.77,0-1.55,0-2.32.07h-.41a1.29,1.29,0,0,0-.38.12.29.29,0,0,0-.13.39.27.27,0,0,0,.13.13.87.87,0,0,0,.39.07c.38,0,.77-.07,1.15-.07h2.5a4.1,4.1,0,0,0,.69-.1Zm7.17,0a.85.85,0,0,0,.22.09c.46,0,.93.08,1.39.09a9.37,9.37,0,0,1,2.36.18h.11a1.23,1.23,0,0,0,.41-.34c.07-.15-.1-.31-.27-.36a1.82,1.82,0,0,0-.45-.1l-3.18-.13c-.33,0-.48.22-.56.56ZM5,13.07c.33,0,.65.08,1,.1l2.48.14c.34,0,.41,0,.55-.45a1.11,1.11,0,0,0-.35-.16,15.38,15.38,0,0,0-3.18-.15c-.28,0-.47.1-.47.48ZM24.52,6.58a2.1,2.1,0,0,0,.08.66.39.39,0,0,0,.42.32A.84.84,0,0,0,25.84,7a1.07,1.07,0,0,0-.3-1.12.7.7,0,0,0-.76-.1c-.26.13-.25.37-.25.61A1.21,1.21,0,0,0,24.52,6.58ZM9.58,13a4.47,4.47,0,0,0-.45.42.65.65,0,0,0-.05.76.53.53,0,0,0,.59.28.69.69,0,0,0,.59-.5C10.41,13.53,10.21,13.23,9.58,13ZM27,14.54a.58.58,0,0,0,.6-.56h0a.54.54,0,0,0-.49-.54.91.91,0,0,0-.64.66A.5.5,0,0,0,27,14.54Z"/><path d="M37.57,10.49V7.68c0-.76-.07-.75-.75-.83s-1-.42-.81-1.11a1.93,1.93,0,0,1,.13-.47c.35-.06.68-.14,1-.18a.43.43,0,0,0,.41-.41c0-.33.07-.65.1-1a5.61,5.61,0,0,1,0-.58.37.37,0,0,1,.42-.31c1.44,0,2.87,0,4.31.07a5.86,5.86,0,0,1,1.37.23,1.83,1.83,0,0,0,1.18,0,3.16,3.16,0,0,1,.91-.2c.53,0,1.08-.1,1.62-.1A9.92,9.92,0,0,1,49,2.85h1.33c.65,0,.87.22.9.87v.82c0,.28.09.44.43.5a.9.9,0,0,1,.46.08.82.82,0,0,1,.72.79,1,1,0,0,1-.61.91,2.23,2.23,0,0,1-.51.12.38.38,0,0,0-.37.41h0v2.76a.44.44,0,0,0,.36.49h0a1.66,1.66,0,0,1,.45.12.92.92,0,0,1,.61.84.78.78,0,0,1-.65.72h-.23c-.46.11-.54.2-.56.67s0,.74,0,1.11a.43.43,0,0,1-.37.48h0a3.45,3.45,0,0,1-.64.05h-4a1.88,1.88,0,0,0-1.11.26,1.06,1.06,0,0,1-1.16,0,2.52,2.52,0,0,0-1.29-.29H40.5c-.73,0-1.55-.07-2.32-.11a.48.48,0,0,1-.55-.4V14a7.22,7.22,0,0,1,0-.93c0-.6-.07-.71-.67-.79a.91.91,0,0,1-.81-.48.76.76,0,0,1,.27-1h.09A2.32,2.32,0,0,1,37,10.6Zm5.78-5.3a3,3,0,0,1-.26,1.29,2,2,0,0,0-.24-.57.6.6,0,0,0-.39-.27c-.23,0-.21.23-.22.4a20.75,20.75,0,0,1-.07,2.09v.7a.57.57,0,0,0,.38.54A.92.92,0,0,0,43.17,9a.81.81,0,0,0,.07-.22c.29-.93.59-1.85.85-2.79a5.82,5.82,0,0,0,.18-1.31c0-.88-.28-1.18-1.17-1.23H41.53a4.16,4.16,0,0,0-1.22,0c-.4.06-.5.1-.5.53v7.85c0,.42.2.57.65.53h.63c.53,0,1,.07,1.57.06a2.44,2.44,0,0,1,1,.16c.4.17.54.07.56-.35,0-.93.07-1.86.08-2.79a2.72,2.72,0,0,0-.09-.69A.36.36,0,0,0,44,8.47a.39.39,0,0,0-.29.13.51.51,0,0,0-.05.72h0l.05,0,.31.21a1.41,1.41,0,0,1-.45.11c-.65,0-1.31,0-2-.08A1.58,1.58,0,0,1,41,9.53a1.25,1.25,0,0,0,.56-1.28c0-.47.06-.93.06-1.39a2.91,2.91,0,0,0-.15-1.17c-.48-.07-.61.38-1,.58a1.57,1.57,0,0,1,.3-1.15A4.36,4.36,0,0,0,43.35,5.19ZM45,9.61c.25-.75.25-.79-.14-1.12-.2.07-.21.26-.21.43v3.2a2.51,2.51,0,0,0,.17.61A5.87,5.87,0,0,1,48,12.35h0c1,0,1.06-.09,1.07-1.07v-7a1.41,1.41,0,0,0,0-.29c0-.5-.09-.6-.57-.61-.89,0-1.79,0-2.68.06-1.24,0-1.27.62-1.25,1.51a2,2,0,0,0,.06.34c.29,1,.57,2,.87,3a2.16,2.16,0,0,0,.77,1.37C45.8,9.81,45.39,9.6,45,9.61ZM39.09,3.53c-.64-.27-.94-.1-1,.48V5c0,.35-.13.46-.5.53s-.5.07-.74.12-.4.16-.4.42.2.39.49.41h.23c.68-.06.83.07.84.76v3.21c0,.47-.09.54-.58.58a2.82,2.82,0,0,0-.57.09.29.29,0,0,0-.23.32h0a.41.41,0,0,0,.21.3,1.8,1.8,0,0,0,.56.11c.47.06.57.14.62.61v.87c0,.56.14.7.7.71h4.43c.09,0,.17-.08.33-.16a3.93,3.93,0,0,0-1.81-.44h-2a1.8,1.8,0,0,1-1-.11c0-.8-.11-1.59-.12-2.38V4.88a1.16,1.16,0,0,1,.31-1A1.63,1.63,0,0,0,39.09,3.53Zm6.58,10.33V14l.48.07h4.18c.4,0,.5-.14.52-.54s0-.66,0-1c0-.57.08-.64.63-.68h.34a.45.45,0,0,0,.39-.45.41.41,0,0,0-.42-.39h-1V7.06c0-.37,0-.42.41-.51a4.67,4.67,0,0,1,.52-.08c.32-.06.49-.25.47-.49s-.2-.35-.51-.38h-.47a.36.36,0,0,1-.43-.29.13.13,0,0,1,0-.06c0-.25-.07-.5-.09-.75a4.51,4.51,0,0,1,0-.52c0-.18,0-.43-.27-.52a.48.48,0,0,0-.63.19,1.14,1.14,0,0,0,.09.26,2.19,2.19,0,0,1,.28,1.28V8.05c0,1.22.06,2.44.09,3.67v1.39a.48.48,0,0,1-.44.52H46.6A1.33,1.33,0,0,0,45.67,13.86Zm-6.25-10a.8.8,0,0,0-.55.74c0,1.1-.07,2.21-.07,3.31,0,.77,0,1.55.06,2.32s0,1.4,0,2.1c0,.18-.06.39.16.52.51-.17.6-.27.6-.76V4.76a1.22,1.22,0,0,0-.2-.91ZM50,12.77v-8a3.53,3.53,0,0,0,0-.46c-.06-.29-.24-.4-.61-.37v3.3a9,9,0,0,1-.06,1.27,7.33,7.33,0,0,0,.06,1.16V12C49.36,12.49,49.44,12.58,50,12.77Zm-10.45.39,1.74.08a9,9,0,0,1,2.07.18.89.89,0,0,0,.51,0,.42.42,0,0,0,.23-.29.41.41,0,0,0-.21-.3,1.21,1.21,0,0,0-.5-.15c-1,0-2.09-.08-3.13-.08a.65.65,0,0,0-.74.56Zm10.12.07a.68.68,0,0,0-.74-.59h-3a1.81,1.81,0,0,0-.56.12.36.36,0,0,0-.27.43h0c.07.23.23.27.46.22a9,9,0,0,1,2.32-.15h1.28ZM45.1,14a.72.72,0,0,0-.61-.72.77.77,0,0,0-.57.72.62.62,0,0,0,.63.61h0a.53.53,0,0,0,.55-.53S45.1,14,45.1,14Zm-.78-7.19C43.91,7.09,44,7.5,44,8a2.26,2.26,0,0,0,.52,0,.33.33,0,0,0,.19-.24c-.07-.31,0-.71-.39-1Z"/><path d="M32.88,54.65l-.08-.29c-.09-.46-.21-.51-.61-.26A.83.83,0,0,1,31,54l0,0h0c-.22-.22-.23-.46,0-.64a1.85,1.85,0,0,1,.63-.27c.45-.11.91-.18,1.36-.31a2.83,2.83,0,0,0,.71-.37A1.31,1.31,0,0,0,34.31,51a4.1,4.1,0,0,1-.1-.69,1.13,1.13,0,0,0-.71-1.1,3.5,3.5,0,0,0-1-.25,2.83,2.83,0,0,1-1.65-.47.34.34,0,0,0-.31,0c-.33.27-.62.09-1-.1a4.87,4.87,0,0,1-.32.47,12.94,12.94,0,0,1-.89,1.07,1.18,1.18,0,0,1-1,.38c-.14-.23,0-.39,0-.57.26-.69.51-1.39.76-2.07a3.54,3.54,0,0,1,.23-.53,1.42,1.42,0,0,0,.12-1.38,17.78,17.78,0,0,1-.52-1.9,4.27,4.27,0,0,1,0-1.67A4,4,0,0,0,27,38.6,4.27,4.27,0,0,0,24.21,37a4.58,4.58,0,0,1-.63-.1c-.47-.13-.58-.42-.34-.83a1.33,1.33,0,0,1,.14-.19L24.68,34l.35-.47.59.51c.33,0,.48-.28.66-.51.39-.5.57-.51,1-.1a1.24,1.24,0,0,0,.22.18,2.34,2.34,0,0,1,1.16,1.71,11.55,11.55,0,0,0,2.55,4.78A5.14,5.14,0,0,0,33,41.37a3.44,3.44,0,0,0,1.22.32,1.92,1.92,0,0,0,1.92-1,1.57,1.57,0,0,0,.22-.64,3.25,3.25,0,0,0-.5-2.23c-.41-.63-.88-1.23-1.31-1.85-.29-.41-.6-.82-.85-1.25a3.93,3.93,0,0,1,0-4.15,6.38,6.38,0,0,1,2.18-2.23c.76-.49,1.57-.92,2.36-1.36.54-.31,1.12-.56,1.63-.9a7.83,7.83,0,0,0,1.22-1,2.45,2.45,0,0,0,.72-1.61A1.86,1.86,0,0,1,41.9,23a.46.46,0,0,1,.49.36,2.07,2.07,0,0,1,0,1.47c0,.11-.09.22-.13.33a.49.49,0,0,0,.17.66,3.51,3.51,0,0,1,.33.34.16.16,0,0,1-.09.15,2.65,2.65,0,0,0-1.41,1,3.26,3.26,0,0,1-.65.58,1,1,0,0,1-1.21,0,1.49,1.49,0,0,0-1.73,0,8.67,8.67,0,0,0-2.4,1.81,3.74,3.74,0,0,0-1,2.77,2.51,2.51,0,0,0,.28.93c.19.35.45.33.66,0a4.92,4.92,0,0,1,.41-.7,2.1,2.1,0,0,1,.66-.56c.54-.26,1.1-.47,1.66-.69h.21a.81.81,0,0,1,0,.31,2.32,2.32,0,0,1-1,1.37,1.92,1.92,0,0,0-1,1.93c0,.14.09.36.18.39a.71.71,0,0,0,.47-.1,1.93,1.93,0,0,0,.3-.27A4.83,4.83,0,0,1,40.64,34c-.09.19-.12.33-.21.39a1.71,1.71,0,0,1-.47.23,4.29,4.29,0,0,0-1.89,1.66,2.39,2.39,0,0,0-.2.43c-.09.28.07.45.36.38s.44-.15.67-.2a4.52,4.52,0,0,1,.63-.08c.18.27,0,.4-.1.49a2.14,2.14,0,0,0-1,1.83,4.1,4.1,0,0,1-.1.69,1.3,1.3,0,0,1-1,1.13.77.77,0,0,0-.54.48,2.7,2.7,0,0,1-3.6,1.28h0L33,42.66c-.26-.14-.57-.34-.8-.09s.06.53.2.77a3.49,3.49,0,0,0,2.49,1.74c.34.07.68.16,1,.25a.7.7,0,0,1,.32.13,2.12,2.12,0,0,1,.21.36,1.06,1.06,0,0,1-.34.16,8.12,8.12,0,0,1-1.21.1,9.9,9.9,0,0,1-1.22-.14.59.59,0,0,0,.24.67,4.53,4.53,0,0,0,1.53.93,5.22,5.22,0,0,1,.56.18.73.73,0,0,1,.5.71,3.61,3.61,0,0,0,.23,1.13,1.12,1.12,0,0,1-.18,1.15,1.67,1.67,0,0,0-.32,1.43v.31a1.37,1.37,0,0,0-.35.08,2.35,2.35,0,0,0-.45.22c-.17.12-.32.28-.49.4a1,1,0,0,0-.44.59,1.07,1.07,0,0,1-1.16.86Z" style="fill:#fff"/><path d="M23.24,26.5c.08-.56.33-.71.73-.5.21.11.38.28.58.4a.34.34,0,0,0,.48,0,.24.24,0,0,0,.07-.12.62.62,0,0,0,0-.62,5.51,5.51,0,0,0-.45-.73c-.16-.21-.4-.37-.57-.58s-.3-.4-.25-.49c.23-.38,0-.89.3-1.18a2.22,2.22,0,0,1,.85-.33c.37-.1.75-.18,1.13-.25a1.14,1.14,0,0,1,.45,0,7.28,7.28,0,0,1,.93.32c.39.17.76.4,1.15.56s.54.22.59.57a.3.3,0,0,0,.17.21c.4.15.38.42.3.76a1.78,1.78,0,0,1-.44,1,.36.36,0,0,0-.05.51h0l.05.05c.39.51.18,1.08.13,1.63a.33.33,0,0,1-.14.17,1,1,0,0,0-.36.93v1.75c0,.29,0,.53-.39.61a.39.39,0,0,0-.31.46l0,.09A2.2,2.2,0,0,0,29,33.1c.4.26.39.3.49.73a2.07,2.07,0,0,1-1.71-.57,18.39,18.39,0,0,1-1.24-1.41c-.29.39-.11,1-.68,1.31a2.22,2.22,0,0,1-.28-.33c-.11-.16-.17-.35-.29-.5a.44.44,0,0,0-.31-.2c-.08,0-.18.18-.21.29a6.19,6.19,0,0,1-.93,2,17.3,17.3,0,0,1-1,1.42c-.16.22-.32.45-.62.48-.17-.2,0-.38,0-.55a5.76,5.76,0,0,0,.35-2.29,3.7,3.7,0,0,0-.13-.74c-.09-.34-.26-.38-.54-.15l-.27.23a.27.27,0,0,1-.37,0,.23.23,0,0,1-.06-.16v-.58a.29.29,0,0,0-.29-.29.28.28,0,0,0-.15,0,1.9,1.9,0,0,0-.33.22,6.28,6.28,0,0,1-4.21,1.23,3.28,3.28,0,0,1-.61-.18,4.17,4.17,0,0,1,.69-.43,4.38,4.38,0,0,0,1.76-1.21c.8-.85,1.55-1.74,2.33-2.62a5,5,0,0,1-.19-.63,1.67,1.67,0,0,1,0-.63c.06-.37.31-.47.63-.26.11.08.19.19.3.27a2.06,2.06,0,0,0,1.93.28,1,1,0,0,0,.6-.53c.2-.36.16-.49-.22-.67Zm2,1.29a3.82,3.82,0,0,0-.12.66,2.23,2.23,0,0,0,.17.72.28.28,0,0,0,.39.11h.07a2.75,2.75,0,0,0,.55-.58A11,11,0,0,0,27,27.48a.65.65,0,0,0,0-.77,5.65,5.65,0,0,0-1,1.46Zm2.11-4a2.47,2.47,0,0,0-.89-.87c-.36-.19-.6,0-.65.36a.69.69,0,0,0,.46.77.73.73,0,0,0,1-.27ZM28.77,25c.43-.18.5-.34.32-.8C28.64,24.33,28.59,24.46,28.77,25Z" style="fill:#fff"/><path d="M25.6,46.4a.81.81,0,0,1-.62-.6,2.57,2.57,0,0,0-.23-.6.31.31,0,0,0-.39-.2.31.31,0,0,0-.17.13A1.12,1.12,0,0,0,24,46.7h0l.07.07a2,2,0,0,1,.28.37.67.67,0,0,1,0,.72c-.18.27-.37.54-.54.82a.82.82,0,0,1-.74.38h-1.4a1.68,1.68,0,0,0-1.7,1l-.11.2c-.11.17-.26.15-.4,0a.28.28,0,0,1-.1-.14c-.06-.62-.55-.69-1-.91a1.26,1.26,0,0,0-1.54.08.78.78,0,0,1-.93.06,3.89,3.89,0,0,0-.6-.22V48.5L14.1,48a.52.52,0,0,1,.4-.55,2.26,2.26,0,0,1,1.31-.1,7.08,7.08,0,0,0,2.25,0,13.35,13.35,0,0,1,2,0,1.94,1.94,0,0,0,.68,0,.6.6,0,0,0,.44-.74.46.46,0,0,0-.08-.19,3,3,0,0,0-.67-.71,2.52,2.52,0,0,1-.94-1.15c-.12-.34-.22-.36-.58-.31h-.32c-.06,0-.11,0-.12-.08-.15-.51-.5-.6-1-.54a1.09,1.09,0,0,1-1-.18.32.32,0,0,1,.26-.34,9.79,9.79,0,0,0,2.07-.91,6.24,6.24,0,0,1,.94-.26.83.83,0,0,0,.43-.23A3.78,3.78,0,0,1,23,40.38a15.56,15.56,0,0,0,1.8-.13,10.29,10.29,0,0,0,1.35-.35.8.8,0,0,1,1.07.4.42.42,0,0,1,0,.1,2.07,2.07,0,0,1-.34,2.32,9.1,9.1,0,0,0-.61.78,2.56,2.56,0,0,0-.55,1.68,4,4,0,0,1,0,.69A4.64,4.64,0,0,1,25.6,46.4Z" style="fill:#fff"/><path d="M19.5,28.82a3,3,0,0,1-.27.57c-.51.62-1,1.21-1.56,1.81l-.09.08c-.36.33-.64.3-.91-.11-.13-.21-.23-.45-.35-.67A2.37,2.37,0,0,0,16,30a.81.81,0,0,0-1-.24c-.71.26-.8.19-.89-.58a2.19,2.19,0,0,0-.12-.33c-.65.16-1,.88-1.84.71a3.12,3.12,0,0,1,.15-.39c.16-.27.34-.52.48-.79a1.93,1.93,0,0,0-.6-2.44H12c-.76.31-.76.31-1.42-.11-.24-.14-.29-.32-.1-.52a2.69,2.69,0,0,1,.5-.39c.19-.12.37-.24.33-.5s-.23-.3-.41-.38c-.65-.26-.8-.64-.6-1.43a.92.92,0,0,1,1,.3c.6.67,1.36,1.15,2,1.76a6.64,6.64,0,0,1,.51.55,11.41,11.41,0,0,0,5,3.4Z" style="fill:#fff"/><path d="M10.92,38.54a.89.89,0,0,1,.46-.74,1.71,1.71,0,0,1,.47-.23l3.73-1.45a8.73,8.73,0,0,0,2.24-1.33c.58-.48,1.12-1,1.7-1.5a3.39,3.39,0,0,1,.72-.46c.2-.1.36,0,.48.2.25.45.26.44.8.36s.66.08.61.57a10,10,0,0,1-.25,1.43c-.15.56-.35.71-.91.7a1,1,0,0,0-1,.52c-.28.45-.39.45-.85.18L19,36.73c-.32.12-.41.4-.54.66s-.43.82-.68,1.21-.19.25-.64.29V38.1c0-.51-.24-.65-.72-.5a4,4,0,0,1-.84.15,1,1,0,0,0-1,.69c-.13.41-.33.47-.72.27a2.41,2.41,0,0,1-.54-.41c-.26-.26-.38-.26-.61,0h0C12.06,39,11.65,39.08,10.92,38.54Z" style="fill:#fff"/><path d="M24.26,25.6a2.72,2.72,0,0,1-.55-.18q-1.22-.75-2.4-1.53a1.12,1.12,0,0,1-.4-1.48.93.93,0,0,1,.35-.36.34.34,0,0,1,.47.11.34.34,0,0,1,.05.14,1,1,0,0,1,0,.24A1.36,1.36,0,0,0,22.5,24c.35.23.72.46,1.06.72A1.66,1.66,0,0,1,24.26,25.6Z" style="fill:#fff"/><path d="M12,37.05c-.3,0-.53,0-.63-.25a.89.89,0,0,1,0-.89.46.46,0,0,1,.4-.11,4,4,0,0,1,.83.59c.19.18.11.4-.14.51A3.53,3.53,0,0,1,12,37.05Z" style="fill:#fff"/><path d="M16.45,46.75a1.17,1.17,0,0,1-1.06.06.69.69,0,0,1-.33-.74.33.33,0,0,1,.42-.2h0A1.2,1.2,0,0,1,16.45,46.75Z" style="fill:#fff"/><path d="M12.82,23.13s-.06.2-.16.24a.46.46,0,0,1-.36-.06.7.7,0,0,1-.25-.92c.1-.17.22-.19.39-.09A.93.93,0,0,1,12.82,23.13Z" style="fill:#fff"/><path d="M32,3.46v8.32c0,.36-.09.44-.46.45H30.09a8.67,8.67,0,0,0-2.54.18c-.25.08-.37,0-.39-.28s0-.54,0-.82V4.57c0-.77.21-1.08,1-1.15s1.89,0,2.84,0A4.79,4.79,0,0,1,32,3.46ZM30.15,9.6a1.3,1.3,0,0,1-.61-1.42V7.07a1.72,1.72,0,0,1,.65-1.66,5.68,5.68,0,0,0-1.84,0A1.12,1.12,0,0,1,29,6.72c0,.51-.08,1-.09,1.51a1.28,1.28,0,0,1-.51,1.22V9.6Z" style="fill:#fff"/><path d="M9.86,12.38a3.19,3.19,0,0,1-.12-.6V4.21a.76.76,0,0,1,.5-.71A1.83,1.83,0,0,1,11,3.33h3c.45,0,.55.1.55.56v8.19c-.36,0-.68.08-1,.09H11.34C10.83,12.25,10.39,12.32,9.86,12.38ZM12.7,6.79c-.25,0-.32.21-.46.31a.49.49,0,0,1-.69,0,.46.46,0,0,1-.15-.31,2.36,2.36,0,0,1,0-.75c.07-.35.21-.46.57-.4a1.57,1.57,0,0,1,.5.25,2.42,2.42,0,0,1,.31.33.91.91,0,0,0-.21-1.08A2.21,2.21,0,0,1,11,5.39a2.73,2.73,0,0,0-.7,0,1.32,1.32,0,0,1,.53,1.33v1.1a4.82,4.82,0,0,1,0,.93,5.59,5.59,0,0,1-.38.87,9.81,9.81,0,0,0,2.76,0,.84.84,0,0,0-.14-.82.61.61,0,0,0-.15.24c-.21.44-.63.47-1,.49a.34.34,0,0,1-.4-.26.13.13,0,0,1,0-.06A7,7,0,0,1,11.4,8c0-.47.46-.62.85-.34A3.79,3.79,0,0,1,12.7,8Z" style="fill:#fff"/><path d="M9.44,8.19V11.4c0,.21,0,.43,0,.64s-.16.43-.47.36a11.78,11.78,0,0,0-2.84-.19H6c-.62-.07-.71-.12-.76-.73A14.63,14.63,0,0,1,5.2,10V4c0-.62.09-.7.72-.7H7.61a6.58,6.58,0,0,1,1.08.18.86.86,0,0,1,.73.92v2C9.42,7.07,9.44,7.61,9.44,8.19ZM7.13,5.51c-.48.07-.92-.34-1.41,0A1.62,1.62,0,0,1,6.4,6.6c.24.82.47,1.64.7,2.45.05.18.08.34.31.39a1,1,0,0,0,.35-.63c.21-.72.42-1.45.67-2.16a6.33,6.33,0,0,1,.52-1,2.61,2.61,0,0,1,.17-.28A1.46,1.46,0,0,0,8,5.47,1.34,1.34,0,0,1,8,7c-.09.21-.14.44-.23.65a2.54,2.54,0,0,1-.16.28c-.27-.06-.31-.26-.36-.44a6,6,0,0,0-.19-.73A1.18,1.18,0,0,1,7.13,5.51Z" style="fill:#fff"/><path d="M24.84,9.65a1.36,1.36,0,0,1-.15-1.53,1.53,1.53,0,0,1,.31.26,6,6,0,0,1,.36.52c.31.51.66.92,1.33.85a.2.2,0,0,1,.15.06,6.86,6.86,0,0,1-.07,2.67,4.1,4.1,0,0,1-.49-.06,5.23,5.23,0,0,0-1.67-.18H23.27c-.45,0-.54-.13-.58-.55a2.81,2.81,0,0,1,0-.41V4.58c0-.36.06-.73.08-1.11.07,0,.14-.09.21-.08,1,0,2,0,3,.09.76.06,1,.36,1,1.1V8.77c0,.22,0,.43-.06.65a1.92,1.92,0,0,1-.46-.21,4.26,4.26,0,0,1-.86-1.35c.17-.13.33-.23.48-.35a1.16,1.16,0,0,0,.49-1.11,1,1,0,0,0-.8-.94,6.05,6.05,0,0,0-2.08,0l-.14.09a4,4,0,0,1,.39.67,2.75,2.75,0,0,1,0,.81V8.31a2,2,0,0,1-.42,1.3C23.9,9.84,24.32,9.66,24.84,9.65Z" style="fill:#fff"/><path d="M32.78,3.49c.65-.32,1-.16,1,.5V5c0,.5,0,.51.53.55a5.77,5.77,0,0,1,.58.08.41.41,0,0,1,.35.46c0,.25-.18.33-.39.36l-1,.1a3.54,3.54,0,0,0-.17,1.37c0,.84.08,1.67.1,2.5,0,.59,0,.62.65.61h.35a.42.42,0,0,1,.4.41.43.43,0,0,1-.38.45h-.46c-.47,0-.57.13-.57.61v1c0,.5-.13.61-.64.61h-4.6A3.12,3.12,0,0,1,28,14a.52.52,0,0,1,.49-.43,10,10,0,0,1,1.1-.11H32.8a.42.42,0,0,0,.41-.43V5.15a1.76,1.76,0,0,0-.36-1.25A1.14,1.14,0,0,1,32.78,3.49Z" style="fill:#fff"/><path d="M21.91,3.54a1.46,1.46,0,0,1-.22.33,1.27,1.27,0,0,0-.36,1V6.2c0,2.21,0,4.43.08,6.64,0,.53.08.6.61.61h3a3.07,3.07,0,0,1,.74.1,1.38,1.38,0,0,1,.36.23.55.55,0,0,1-.59.27H22a2.74,2.74,0,0,1-.5-.07c-.54-.1-.55-.12-.57-.68a6.64,6.64,0,0,0-.1-1,.44.44,0,0,0-.48-.4h-.76c-.21,0-.4-.09-.41-.33a.39.39,0,0,1,.33-.44h0l.81-.09c.41,0,.54-.18.55-.6V7c0-.43-.13-.54-.56-.59a3.67,3.67,0,0,1-.74-.11.32.32,0,0,1-.24-.4.31.31,0,0,1,.18-.22,1.29,1.29,0,0,1,.5-.14h.46A.48.48,0,0,0,21,5.07s0-.05,0-.07h0A10,10,0,0,1,21,3.9C21.08,3.35,21.33,3.23,21.91,3.54Z" style="fill:#fff"/><path d="M1.94,11.43A.51.51,0,0,1,2.37,11a4.36,4.36,0,0,1,.52-.11c.51-.11.65-.26.64-.79,0-1.13,0-2.25-.09-3.37a.56.56,0,0,0-.53-.57h-.6a.36.36,0,0,1-.37-.3c-.06-.2.14-.31.32-.34L3,5.41a.54.54,0,0,0,.53-.55v-1c.06-.52.47-.65.91-.3a3.82,3.82,0,0,0-.57.92,4.18,4.18,0,0,0,0,1v5.88A10.29,10.29,0,0,0,4,12.93c0,.36.11.44.48.44H6.65a12.63,12.63,0,0,1,1.51.12,1.11,1.11,0,0,1,.35.16c-.08.3-.3.33-.51.33H5.48L4,13.87c-.41,0-.51-.1-.55-.51a4,4,0,0,1,0-.69c.06-.58-.06-.74-.62-.81S2.23,11.77,1.94,11.43Z" style="fill:#fff"/><path d="M10.67,13.86a1,1,0,0,1,.94-.47l3.5,0c.39,0,.51-.09.61-.48a2.25,2.25,0,0,0,.06-.63V5.64a2.74,2.74,0,0,0-.47-2.08c.18-.3.4-.26.63-.17a.41.41,0,0,1,.26.47v.93c0,.57.17.7.74.73a1.77,1.77,0,0,1,.46,0,.55.55,0,0,1,.29.31.43.43,0,0,1-.17.38,1.87,1.87,0,0,1-.66.15c-.51,0-.56.08-.58.59,0,.81-.07,1.62-.07,2.44a8,8,0,0,0,.07,1.1c0,.36.12.43.48.46h.52c.39,0,.56.17.55.45s-.17.4-.53.43h-.52c-.4,0-.56.18-.58.58s0,.66,0,1-.12.52-.53.52h-4.6A1.76,1.76,0,0,1,10.67,13.86Z" style="fill:#fff"/><path d="M21.77,12.67c0-.69-.11-1.33-.11-2V4.9a1.13,1.13,0,0,1,.59-1.14c.32.13.28.38.28.6V7.45c0,.49-.06,1-.07,1.45s0,.74,0,1.11c0,.71,0,1.43-.06,2.14C22.35,12.47,22.14,12.62,21.77,12.67Z" style="fill:#fff"/><path d="M32.89,12.65c-.27.06-.38-.05-.42-.22a3.42,3.42,0,0,1-.09-.63V5.11a4.11,4.11,0,0,1,.08-.86A.25.25,0,0,1,32.73,4a.23.23,0,0,1,.2.13,1.18,1.18,0,0,1,.14.55V12Q33,12.34,32.89,12.65Z" style="fill:#fff"/><path d="M4.41,12.68a4.38,4.38,0,0,1-.15-.88V4.58a.71.71,0,0,1,.57-.72,5.59,5.59,0,0,1,.08.59V12a.57.57,0,0,1-.45.65Z" style="fill:#fff"/><path d="M15.34,12.66a.55.55,0,0,1-.5-.6h0V4.28c0-.16,0-.36.22-.34a.55.55,0,0,1,.34.27,1.14,1.14,0,0,1,.06.45v6.52C15.46,11.65,15.39,12.13,15.34,12.66Z" style="fill:#fff"/><path d="M32.6,13.14a3.5,3.5,0,0,1-.63.12c-.54,0-1.09-.08-1.62-.06-.7,0-1.39.08-2.08.14a3.05,3.05,0,0,1-.52.05.42.42,0,0,1-.35-.22.41.41,0,0,1,.17-.37,2.43,2.43,0,0,1,.87-.26h3.43C32.22,12.53,32.44,12.72,32.6,13.14Z" style="fill:#fff"/><path d="M15.06,13.06a4.49,4.49,0,0,1-.64.1h-2.5c-.38,0-.77.05-1.15.07a.87.87,0,0,1-.39-.07.29.29,0,0,1-.13-.39.27.27,0,0,1,.13-.13,1.29,1.29,0,0,1,.38-.12h.41c.77,0,1.55-.06,2.32-.07a8.39,8.39,0,0,1,1,.06C14.74,12.53,14.94,12.66,15.06,13.06Z" style="fill:#fff"/><path d="M22.23,13.06c.08-.34.23-.56.59-.55l3.18.13a1.82,1.82,0,0,1,.45.1c.17,0,.36.16.27.36s-.27.24-.41.34-.08,0-.11,0a9.37,9.37,0,0,0-2.36-.18,8.05,8.05,0,0,1-1.39-.09A.65.65,0,0,1,22.23,13.06Z" style="fill:#fff"/><path d="M5.06,13c0-.38.19-.52.47-.52a15.38,15.38,0,0,1,3.18.15,1.11,1.11,0,0,1,.35.16c-.14.43-.21.47-.55.45L6,13.13A8.79,8.79,0,0,1,5.06,13Z" style="fill:#fff"/><path d="M24.52,6.58a1.13,1.13,0,0,1,0-.26c0-.24,0-.48.25-.61a.7.7,0,0,1,.76.1A1.06,1.06,0,0,1,25.84,7a.86.86,0,0,1-.82.63c-.23,0-.38-.08-.42-.32S24.54,6.74,24.52,6.58Z" style="fill:#fff"/><path d="M9.58,13c.63.2.83.5.68,1a.69.69,0,0,1-.59.5.53.53,0,0,1-.59-.28.65.65,0,0,1,.05-.76A4.89,4.89,0,0,1,9.58,13Z" style="fill:#fff"/><path d="M27,14.54a.5.5,0,0,1-.55-.45h0a.91.91,0,0,1,.64-.66.54.54,0,0,1,.49.54.58.58,0,0,1-.57.59h0Z" style="fill:#fff"/><path d="M43.35,5.19a4.36,4.36,0,0,1-2.48-.07,1.57,1.57,0,0,0-.3,1.15c.35-.2.48-.65,1-.58a2.91,2.91,0,0,1,.15,1.17c0,.46-.06.92-.06,1.39a1.25,1.25,0,0,1-.56,1.28,3.31,3.31,0,0,1,.55.08c.66,0,1.32.07,2,.08A1.42,1.42,0,0,0,44,9.58l-.27-.28a.51.51,0,0,1,0-.72h0l0-.05A.41.41,0,0,1,44,8.4a.33.33,0,0,1,.23.23,2.72,2.72,0,0,1,.09.69c0,.93,0,1.86-.08,2.79,0,.42-.16.52-.56.35a2.44,2.44,0,0,0-1-.16,13.74,13.74,0,0,1-1.57-.06H40.5c-.45,0-.62-.09-.65-.53s0-.84,0-1.27V3.86c0-.43.07-.52.5-.53h2.79c.89,0,1.19.35,1.17,1.23A5.82,5.82,0,0,1,44.11,6c-.26.94-.56,1.86-.85,2.79a.81.81,0,0,1-.07.22c-.11.2-.46.42-.62.37a.57.57,0,0,1-.38-.54v-.7c0-.69,0-1.39.07-2.09,0-.17,0-.4.22-.4a.6.6,0,0,1,.39.27,2,2,0,0,1,.24.57A3,3,0,0,0,43.35,5.19Z" style="fill:#fff"/><path d="M45,9.61c.42,0,.83.2,1.31,0a2.16,2.16,0,0,1-.77-1.37c-.3-1-.58-2-.87-3a2,2,0,0,1-.06-.34c0-.89,0-1.46,1.25-1.51.89,0,1.79-.06,2.68-.06.48,0,.55.11.57.61a1.41,1.41,0,0,1,0,.29v7c0,1-.1,1.06-1.07,1.07h-.12a5.88,5.88,0,0,0-3.13.38,2.51,2.51,0,0,1-.17-.61V8.87c0-.17,0-.36.21-.43C45.22,8.82,45.22,8.86,45,9.61Zm3.08-4.26a8.31,8.31,0,0,0-1,.15.71.71,0,0,0-.41.27,1.23,1.23,0,0,0,.3,1.7c.2.15.42.27.62.42a.91.91,0,0,1,.39.86.45.45,0,0,1-.48.42h-.1a.58.58,0,0,1-.4-.44l-.18-.5a2.76,2.76,0,0,0,0,1.34h.88c.54,0,.74-.13.88-.65a1.89,1.89,0,0,0,0-.67,1.58,1.58,0,0,0-.78-1.11,2.37,2.37,0,0,1-.59-.45A.51.51,0,0,1,47.9,6c.13.09.25.19.48.37Z" style="fill:#fff"/><path d="M39.09,3.53a1.72,1.72,0,0,1-.2.38,1.16,1.16,0,0,0-.31,1V11c0,.79.08,1.58.12,2.38a1.8,1.8,0,0,0,1,.11h2a3.93,3.93,0,0,1,1.81.44c-.16.08-.24.16-.33.16H38.75c-.56,0-.67-.15-.7-.71v-.87c0-.47-.15-.55-.62-.61a1.8,1.8,0,0,1-.56-.11.41.41,0,0,1-.21-.3.27.27,0,0,1,.18-.35h0a2.82,2.82,0,0,1,.57-.09c.49,0,.58-.11.58-.58V7.28c0-.69-.16-.82-.84-.76H37a.44.44,0,0,1-.49-.39v0a.43.43,0,0,1,.4-.42l.74-.12a.53.53,0,0,0,.5-.53V4C38.15,3.43,38.45,3.26,39.09,3.53Z" style="fill:#fff"/><path d="M45.67,13.86a1.34,1.34,0,0,1,1-.3h3.2a.48.48,0,0,0,.45-.51h0v-1.4c0-1.23-.07-2.45-.09-3.67V5.12A2.1,2.1,0,0,0,50,3.84a1.14,1.14,0,0,1-.09-.26.48.48,0,0,1,.63-.19c.24.09.27.3.27.52v.52c0,.17.06.5.09.75a.38.38,0,0,0,.38.36h.53a.44.44,0,0,1,.51.38.52.52,0,0,1-.47.49,4.67,4.67,0,0,0-.52.08c-.37.09-.41.14-.41.51v4h1a.41.41,0,0,1,.42.39.45.45,0,0,1-.39.45h-.34c-.55,0-.62.11-.63.68v1c0,.34-.12.5-.52.54H46.18L45.7,14Z" style="fill:#fff"/><path d="M39.42,3.85a1.2,1.2,0,0,1,.21.9v7.33c0,.49-.09.59-.6.76-.22-.13-.16-.34-.16-.52v-2.1c0-.7-.07-1.55-.06-2.32,0-1.1,0-2.21.07-3.31A.78.78,0,0,1,39.42,3.85Z" style="fill:#fff"/><path d="M50,12.77c-.53-.19-.61-.28-.61-.78V9.67c0-.39-.06-.78-.06-1.16a9.29,9.29,0,0,1,.06-1.27V3.94c.37,0,.55.08.61.37a3.53,3.53,0,0,1,0,.46Z" style="fill:#fff"/><path d="M39.52,13.16a.66.66,0,0,1,.71-.61h0c1,0,2.09,0,3.13.08a1.21,1.21,0,0,1,.5.15c.1.06.22.2.21.3a.42.42,0,0,1-.23.29.89.89,0,0,1-.51,0,9,9,0,0,0-2.07-.18Z" style="fill:#fff"/><path d="M49.64,13.23l-.52.06H47.84a9,9,0,0,0-2.32.15c-.23,0-.39,0-.46-.22a.35.35,0,0,1,.23-.45h0a1.81,1.81,0,0,1,.56-.12h3a.68.68,0,0,1,.76.59h0Z" style="fill:#fff"/><path d="M45.1,14a.54.54,0,0,1-.46.61h-.09a.62.62,0,0,1-.63-.61h0a.77.77,0,0,1,.57-.72A.72.72,0,0,1,45.1,14Z" style="fill:#fff"/><path d="M44.32,6.76c.36.27.32.67.4,1a.33.33,0,0,1-.19.24A2.35,2.35,0,0,1,44,8C44,7.5,43.91,7.09,44.32,6.76Z" style="fill:#fff"/><path d="M25.2,27.79l.61.33a5.65,5.65,0,0,1,1-1.46.65.65,0,0,1,0,.77,11,11,0,0,1-.65,1.22,2.75,2.75,0,0,1-.55.58.3.3,0,0,1-.41,0v-.06a2.23,2.23,0,0,1-.17-.72A2.91,2.91,0,0,1,25.2,27.79Z"/><path d="M27.31,23.78c-.31.4-.56.46-1.08.26a.69.69,0,0,1-.46-.77c0-.41.29-.55.65-.36A2.47,2.47,0,0,1,27.31,23.78Z"/><path d="M28.77,25c-.18-.5-.13-.63.32-.8C29.27,24.62,29.2,24.78,28.77,25Z"/><path d="M30.15,9.6H28.41V9.45a1.28,1.28,0,0,0,.51-1.22c0-.5.07-1,.09-1.51a1.12,1.12,0,0,0-.66-1.27,5.68,5.68,0,0,1,1.84,0,1.72,1.72,0,0,0-.65,1.66V8.22A1.3,1.3,0,0,0,30.15,9.6Z"/><path d="M12.7,6.79V8a4.11,4.11,0,0,0-.45-.38c-.39-.28-.81-.13-.85.34a6.65,6.65,0,0,0,.06,1.26.34.34,0,0,0,.35.33h.06c.41,0,.83-.05,1-.49A.57.57,0,0,1,13,8.79a.84.84,0,0,1,.14.82,9.81,9.81,0,0,1-2.76,0,5.59,5.59,0,0,0,.38-.87,4.82,4.82,0,0,0,0-.93V6.71a1.32,1.32,0,0,0-.53-1.33,2.73,2.73,0,0,1,.7,0,2.21,2.21,0,0,0,1.61-.24.91.91,0,0,1,.21,1.08,2.42,2.42,0,0,0-.31-.33,1.57,1.57,0,0,0-.5-.25c-.36-.06-.5,0-.57.4a2.36,2.36,0,0,0,0,.75.49.49,0,0,0,.53.45.51.51,0,0,0,.31-.15C12.38,7,12.45,6.77,12.7,6.79Z"/><path d="M7.13,5.51a1.17,1.17,0,0,0,0,1.2,6,6,0,0,1,.19.73.43.43,0,0,0,.36.44,2.54,2.54,0,0,0,.16-.28c.09-.21.14-.44.23-.65A1.35,1.35,0,0,0,8,5.47a1.44,1.44,0,0,1,1.08-.06A.6.6,0,0,1,9,5.69a6.33,6.33,0,0,0-.52,1C8.23,7.4,8,8.13,7.81,8.85a1,1,0,0,1-.35.63c-.23-.05-.26-.21-.31-.39-.23-.81-.46-1.63-.7-2.45a1.63,1.63,0,0,0-.68-1.07C6.21,5.17,6.65,5.58,7.13,5.51Z"/><path d="M48,5.35l.17,1c-.23-.18-.35-.28-.48-.37A.52.52,0,0,0,47,6a.53.53,0,0,0,0,.74,2.37,2.37,0,0,0,.59.45,1.58,1.58,0,0,1,.78,1.11,1.89,1.89,0,0,1,0,.67c-.14.52-.34.66-.88.65h-.88a2.76,2.76,0,0,1,0-1.34l.18.5a.6.6,0,0,0,.44.42.45.45,0,0,0,.56-.3.36.36,0,0,0,0-.1.91.91,0,0,0-.39-.86c-.2-.15-.42-.27-.62-.42a1.23,1.23,0,0,1-.3-1.7A.72.72,0,0,1,47,5.5,8.31,8.31,0,0,1,48,5.35Z"/></g></g></g></g></svg>